<?xml version="1.0" encoding="UTF-8"?>
<svg viewBox="0 0 188 62" version="1.1" xmlns="http://www.w3.org/2000/svg" xmlns:xlink="http://www.w3.org/1999/xlink">
    <g id="Symbols" stroke="none" stroke-width="1" fill="none" fill-rule="evenodd">
        <g id="Dialog/Step_3---Confirmation" transform="translate(-131.000000, -214.000000)" fill-rule="nonzero">
            <g id="Group-4" transform="translate(132.000000, 215.000000)">
                <path d="M170,28.5 C170,21.6071429 164.408832,16 157.5,16 C150.626781,16 145,21.6071429 145,28.5 C145,35.3928571 150.591168,41 157.5,41 C164.408832,41 170,35.3928571 170,28.5 L170,28.5 Z M168.397436,28.5 C168.397436,34.5 163.518519,39.3928571 157.5,39.3928571 C151.481481,39.3928571 146.602564,34.5 146.602564,28.5 C146.602564,22.5 151.481481,17.6071429 157.5,17.6071429 C163.518519,17.6071429 168.397436,22.4642857 168.397436,28.5 L168.397436,28.5 Z M163.447293,34.4642857 L164.80057,33.1071429 L159.351852,20.8928571 L157.286325,20.8928571 L154.82906,26.5357143 L154.54416,26.3928571 C153.084046,25.6785714 151.944444,25.3214286 151.089744,25.3214286 C149.985755,25.3214286 149.487179,25.9285714 149.273504,26.2857143 C148.668091,27.3571429 149.024217,28.8928571 150.34188,30.8928571 C150.840456,31.6428571 151.339031,32.3214286 151.730769,32.7857143 L153.689459,32.7857143 L154.508547,30.9642857 L153.653846,29.0357143 L152.656695,31.2142857 L152.336182,30.7857143 C152.122507,30.5 151.908832,30.1785714 151.730769,29.8928571 C150.662393,28.25 150.48433,27.3928571 150.733618,27.1071429 C150.947293,26.8214286 152.30057,27.2142857 153.796296,27.9285714 C154.615385,28.2857143 155.434473,28.75 156.253561,29.3214286 C156.823362,29.6785714 157.464387,30.1071429 158.105413,30.5357143 C160.491453,32.1785714 162.663818,33.8571429 163.447293,34.4642857 L163.447293,34.4642857 Z M162.200855,31.3571429 L161.310541,30.7142857 C159.565527,29.4285714 157.92735,28.3571429 156.502849,27.5 L156.182336,27.2857143 L158.247863,22.6071429 L162.200855,31.3571429 L162.200855,31.3571429 Z" id="Shape" fill="#00BED5"></path>
                <g id="Group-7">
                    <path d="M7.73320313,10.0566406 C8.6186849,10.0566406 9.06142578,9.34580078 9.06142578,7.92412109 C9.06142578,7.23499349 8.94956055,6.70776367 8.72583008,6.34243164 C8.50209961,5.97709961 8.17122396,5.79443359 7.73320313,5.79443359 C6.85527344,5.79443359 6.41630859,6.50432943 6.41630859,7.92412109 C6.41630859,8.61513672 6.52770182,9.14331055 6.75048828,9.50864258 C6.97327474,9.87397461 7.30084635,10.0566406 7.73320313,10.0566406 Z M7.73320313,9.61767578 C7.4594401,9.61767578 7.25883789,9.48551432 7.13139648,9.22119141 C7.00395508,8.95686849 6.94023438,8.52451172 6.94023438,7.92412109 C6.94023438,7.32561849 7.00395508,6.89467773 7.13139648,6.63129883 C7.25883789,6.36791992 7.4594401,6.23623047 7.73320313,6.23623047 C8.01074219,6.23623047 8.21464844,6.36886393 8.34492188,6.63413086 C8.47519531,6.89939779 8.54033203,7.32939453 8.54033203,7.92412109 C8.54033203,8.5226237 8.47519531,8.95450846 8.34492188,9.21977539 C8.21464844,9.48504232 8.01074219,9.61767578 7.73320313,9.61767578 Z M11.8072461,10 L11.8072461,5.85957031 L11.3824414,5.85957031 L10.2977734,6.70634766 L10.5724805,7.0546875 L10.9887891,6.71201172 C11.1436068,6.57985026 11.257832,6.47317708 11.3314648,6.39199219 C11.3163607,6.84322917 11.3088086,7.18401693 11.3088086,7.41435547 L11.3088086,7.41435547 L11.3088086,10 L11.8072461,10 Z M15.0543359,10.0566406 C15.9398177,10.0566406 16.3825586,9.34580078 16.3825586,7.92412109 C16.3825586,7.23499349 16.2706934,6.70776367 16.0469629,6.34243164 C15.8232324,5.97709961 15.4923568,5.79443359 15.0543359,5.79443359 C14.1764062,5.79443359 13.7374414,6.50432943 13.7374414,7.92412109 C13.7374414,8.61513672 13.8488346,9.14331055 14.0716211,9.50864258 C14.2944076,9.87397461 14.6219792,10.0566406 15.0543359,10.0566406 Z M15.0543359,9.61767578 C14.7805729,9.61767578 14.5799707,9.48551432 14.4525293,9.22119141 C14.3250879,8.95686849 14.2613672,8.52451172 14.2613672,7.92412109 C14.2613672,7.32561849 14.3250879,6.89467773 14.4525293,6.63129883 C14.5799707,6.36791992 14.7805729,6.23623047 15.0543359,6.23623047 C15.331875,6.23623047 15.5357812,6.36886393 15.6660547,6.63413086 C15.7963281,6.89939779 15.8614648,7.32939453 15.8614648,7.92412109 C15.8614648,8.5226237 15.7963281,8.95450846 15.6660547,9.21977539 C15.5357812,9.48504232 15.331875,9.61767578 15.0543359,9.61767578 Z M19.1283789,10 L19.1283789,5.85957031 L18.7035742,5.85957031 L17.6189063,6.70634766 L17.8936133,7.0546875 L18.3099219,6.71201172 C18.4647396,6.57985026 18.5789648,6.47317708 18.6525977,6.39199219 C18.6374935,6.84322917 18.6299414,7.18401693 18.6299414,7.41435547 L18.6299414,7.41435547 L18.6299414,10 L19.1283789,10 Z M22.7889453,10 L22.7889453,5.85957031 L22.3641406,5.85957031 L21.2794727,6.70634766 L21.5541797,7.0546875 L21.9704883,6.71201172 C22.125306,6.57985026 22.2395313,6.47317708 22.3131641,6.39199219 C22.2980599,6.84322917 22.2905078,7.18401693 22.2905078,7.41435547 L22.2905078,7.41435547 L22.2905078,10 L22.7889453,10 Z M26.4495117,10 L26.4495117,5.85957031 L26.024707,5.85957031 L24.9400391,6.70634766 L25.2147461,7.0546875 L25.6310547,6.71201172 C25.7858724,6.57985026 25.9000977,6.47317708 25.9737305,6.39199219 C25.9586263,6.84322917 25.9510742,7.18401693 25.9510742,7.41435547 L25.9510742,10 L26.4495117,10 Z M30.1100781,10 L30.1100781,5.85957031 L29.6852734,5.85957031 L28.6006055,6.70634766 L28.8753125,7.0546875 L29.2916211,6.71201172 C29.4464388,6.57985026 29.5606641,6.47317708 29.6342969,6.39199219 C29.6191927,6.84322917 29.6116406,7.18401693 29.6116406,7.41435547 L29.6116406,7.41435547 L29.6116406,10 L30.1100781,10 Z M33.357168,10.0566406 C34.2426497,10.0566406 34.6853906,9.34580078 34.6853906,7.92412109 C34.6853906,7.23499349 34.5735254,6.70776367 34.3497949,6.34243164 C34.1260645,5.97709961 33.7951888,5.79443359 33.357168,5.79443359 C32.4792383,5.79443359 32.0402734,6.50432943 32.0402734,7.92412109 C32.0402734,8.61513672 32.1516667,9.14331055 32.3744531,9.50864258 C32.5972396,9.87397461 32.9248112,10.0566406 33.357168,10.0566406 Z M33.357168,9.61767578 C33.0834049,9.61767578 32.8828027,9.48551432 32.7553613,9.22119141 C32.6279199,8.95686849 32.5641992,8.52451172 32.5641992,7.92412109 C32.5641992,7.32561849 32.6279199,6.89467773 32.7553613,6.63129883 C32.8828027,6.36791992 33.0834049,6.23623047 33.357168,6.23623047 C33.634707,6.23623047 33.8386133,6.36886393 33.9688867,6.63413086 C34.0991602,6.89939779 34.1642969,7.32939453 34.1642969,7.92412109 C34.1642969,8.5226237 34.0991602,8.95450846 33.9688867,9.21977539 C33.8386133,9.48504232 33.634707,9.61767578 33.357168,9.61767578 Z M37.4312109,10 L37.4312109,5.85957031 L37.0064062,5.85957031 L35.9217383,6.70634766 L36.1964453,7.0546875 L36.6127539,6.71201172 C36.7675716,6.57985026 36.8817969,6.47317708 36.9554297,6.39199219 C36.9403255,6.84322917 36.9327734,7.18401693 36.9327734,7.41435547 L36.9327734,7.41435547 L36.9327734,10 L37.4312109,10 Z M41.0917773,10 L41.0917773,5.85957031 L40.6669727,5.85957031 L39.5823047,6.70634766 L39.8570117,7.0546875 L40.2733203,6.71201172 C40.428138,6.57985026 40.5423633,6.47317708 40.6159961,6.39199219 C40.6008919,6.84322917 40.5933398,7.18401693 40.5933398,7.41435547 L40.5933398,10 L41.0917773,10 Z M44.3388672,10.0566406 C45.224349,10.0566406 45.6670898,9.34580078 45.6670898,7.92412109 C45.6670898,7.23499349 45.5552246,6.70776367 45.3314941,6.34243164 C45.1077637,5.97709961 44.776888,5.79443359 44.3388672,5.79443359 C43.4609375,5.79443359 43.0219727,6.50432943 43.0219727,7.92412109 C43.0219727,8.61513672 43.1333659,9.14331055 43.3561523,9.50864258 C43.5789388,9.87397461 43.9065104,10.0566406 44.3388672,10.0566406 Z M44.3388672,9.61767578 C44.0651042,9.61767578 43.864502,9.48551432 43.7370605,9.22119141 C43.6096191,8.95686849 43.5458984,8.52451172 43.5458984,7.92412109 C43.5458984,7.32561849 43.6096191,6.89467773 43.7370605,6.63129883 C43.864502,6.36791992 44.0651042,6.23623047 44.3388672,6.23623047 C44.6164062,6.23623047 44.8203125,6.36886393 44.9505859,6.63413086 C45.0808594,6.89939779 45.1459961,7.32939453 45.1459961,7.92412109 C45.1459961,8.5226237 45.0808594,8.95450846 44.9505859,9.21977539 C44.8203125,9.48504232 44.6164062,9.61767578 44.3388672,9.61767578 Z M47.9994336,10.0566406 C48.8849154,10.0566406 49.3276562,9.34580078 49.3276562,7.92412109 C49.3276562,7.23499349 49.215791,6.70776367 48.9920605,6.34243164 C48.7683301,5.97709961 48.4374544,5.79443359 47.9994336,5.79443359 C47.1215039,5.79443359 46.6825391,6.50432943 46.6825391,7.92412109 C46.6825391,8.61513672 46.7939323,9.14331055 47.0167187,9.50864258 C47.2395052,9.87397461 47.5670768,10.0566406 47.9994336,10.0566406 Z M47.9994336,9.61767578 C47.7256706,9.61767578 47.5250684,9.48551432 47.397627,9.22119141 C47.2701855,8.95686849 47.2064648,8.52451172 47.2064648,7.92412109 C47.2064648,7.32561849 47.2701855,6.89467773 47.397627,6.63129883 C47.5250684,6.36791992 47.7256706,6.23623047 47.9994336,6.23623047 C48.2769727,6.23623047 48.4808789,6.36886393 48.6111523,6.63413086 C48.7414258,6.89939779 48.8065625,7.32939453 48.8065625,7.92412109 C48.8065625,8.5226237 48.7414258,8.95450846 48.6111523,9.21977539 C48.4808789,9.48504232 48.2769727,9.61767578 47.9994336,9.61767578 Z M51.66,10.0566406 C52.5454818,10.0566406 52.9882227,9.34580078 52.9882227,7.92412109 C52.9882227,7.23499349 52.8763574,6.70776367 52.652627,6.34243164 C52.4288965,5.97709961 52.0980208,5.79443359 51.66,5.79443359 C50.7820703,5.79443359 50.3431055,6.50432943 50.3431055,7.92412109 C50.3431055,8.61513672 50.4544987,9.14331055 50.6772852,9.50864258 C50.9000716,9.87397461 51.2276432,10.0566406 51.66,10.0566406 Z M51.66,9.61767578 C51.386237,9.61767578 51.1856348,9.48551432 51.0581934,9.22119141 C50.930752,8.95686849 50.8670312,8.52451172 50.8670312,7.92412109 C50.8670312,7.32561849 50.930752,6.89467773 51.0581934,6.63129883 C51.1856348,6.36791992 51.386237,6.23623047 51.66,6.23623047 C51.9375391,6.23623047 52.1414453,6.36886393 52.2717187,6.63413086 C52.4019922,6.89939779 52.4671289,7.32939453 52.4671289,7.92412109 C52.4671289,8.5226237 52.4019922,8.95450846 52.2717187,9.21977539 C52.1414453,9.48504232 51.9375391,9.61767578 51.66,9.61767578 Z M55.734043,10 L55.734043,5.85957031 L55.3092383,5.85957031 L54.2245703,6.70634766 L54.4992773,7.0546875 L54.9155859,6.71201172 C55.0704036,6.57985026 55.1846289,6.47317708 55.2582617,6.39199219 C55.2431576,6.84322917 55.2356055,7.18401693 55.2356055,7.41435547 L55.2356055,7.41435547 L55.2356055,10 L55.734043,10 Z M58.9811328,10.0566406 C59.8666146,10.0566406 60.3093555,9.34580078 60.3093555,7.92412109 C60.3093555,7.23499349 60.1974902,6.70776367 59.9737598,6.34243164 C59.7500293,5.97709961 59.4191536,5.79443359 58.9811328,5.79443359 C58.1032031,5.79443359 57.6642383,6.50432943 57.6642383,7.92412109 C57.6642383,8.61513672 57.7756315,9.14331055 57.998418,9.50864258 C58.2212044,9.87397461 58.548776,10.0566406 58.9811328,10.0566406 Z M58.9811328,9.61767578 C58.7073698,9.61767578 58.5067676,9.48551432 58.3793262,9.22119141 C58.2518848,8.95686849 58.1881641,8.52451172 58.1881641,7.92412109 C58.1881641,7.32561849 58.2518848,6.89467773 58.3793262,6.63129883 C58.5067676,6.36791992 58.7073698,6.23623047 58.9811328,6.23623047 C59.2586719,6.23623047 59.4625781,6.36886393 59.5928516,6.63413086 C59.723125,6.89939779 59.7882617,7.32939453 59.7882617,7.92412109 C59.7882617,8.5226237 59.723125,8.95450846 59.5928516,9.21977539 C59.4625781,9.48504232 59.2586719,9.61767578 58.9811328,9.61767578 Z M62.6416992,10.0566406 C63.527181,10.0566406 63.9699219,9.34580078 63.9699219,7.92412109 C63.9699219,7.23499349 63.8580566,6.70776367 63.6343262,6.34243164 C63.4105957,5.97709961 63.0797201,5.79443359 62.6416992,5.79443359 C61.7637695,5.79443359 61.3248047,6.50432943 61.3248047,7.92412109 C61.3248047,8.61513672 61.4361979,9.14331055 61.6589844,9.50864258 C61.8817708,9.87397461 62.2093424,10.0566406 62.6416992,10.0566406 Z M62.6416992,9.61767578 C62.3679362,9.61767578 62.167334,9.48551432 62.0398926,9.22119141 C61.9124512,8.95686849 61.8487305,8.52451172 61.8487305,7.92412109 C61.8487305,7.32561849 61.9124512,6.89467773 62.0398926,6.63129883 C62.167334,6.36791992 62.3679362,6.23623047 62.6416992,6.23623047 C62.9192383,6.23623047 63.1231445,6.36886393 63.253418,6.63413086 C63.3836914,6.89939779 63.4488281,7.32939453 63.4488281,7.92412109 C63.4488281,8.5226237 63.3836914,8.95450846 63.253418,9.21977539 C63.1231445,9.48504232 62.9192383,9.61767578 62.6416992,9.61767578 Z M7.73320313,15.6566406 C8.6186849,15.6566406 9.06142578,14.9458008 9.06142578,13.5241211 C9.06142578,12.8349935 8.94956055,12.3077637 8.72583008,11.9424316 C8.50209961,11.5770996 8.17122396,11.3944336 7.73320313,11.3944336 C6.85527344,11.3944336 6.41630859,12.1043294 6.41630859,13.5241211 C6.41630859,14.2151367 6.52770182,14.7433105 6.75048828,15.1086426 C6.97327474,15.4739746 7.30084635,15.6566406 7.73320313,15.6566406 Z M7.73320313,15.2176758 C7.4594401,15.2176758 7.25883789,15.0855143 7.13139648,14.8211914 C7.00395508,14.5568685 6.94023438,14.1245117 6.94023438,13.5241211 C6.94023438,12.9256185 7.00395508,12.4946777 7.13139648,12.2312988 C7.25883789,11.9679199 7.4594401,11.8362305 7.73320313,11.8362305 C8.01074219,11.8362305 8.21464844,11.9688639 8.34492188,12.2341309 C8.47519531,12.4993978 8.54033203,12.9293945 8.54033203,13.5241211 C8.54033203,14.1226237 8.47519531,14.5545085 8.34492188,14.8197754 C8.21464844,15.0850423 8.01074219,15.2176758 7.73320313,15.2176758 Z M11.8072461,15.6 L11.8072461,11.4595703 L11.3824414,11.4595703 L10.2977734,12.3063477 L10.5724805,12.6546875 L10.9887891,12.3120117 C11.1436068,12.1798503 11.257832,12.0731771 11.3314648,11.9919922 C11.3163607,12.4432292 11.3088086,12.7840169 11.3088086,13.0143555 L11.3088086,13.0143555 L11.3088086,15.6 L11.8072461,15.6 Z M15.4678125,15.6 L15.4678125,11.4595703 L15.0430078,11.4595703 L13.9583398,12.3063477 L14.2330469,12.6546875 L14.6493555,12.3120117 C14.8041732,12.1798503 14.9183984,12.0731771 14.9920313,11.9919922 C14.9769271,12.4432292 14.969375,12.7840169 14.969375,13.0143555 L14.969375,13.0143555 L14.969375,15.6 L15.4678125,15.6 Z M18.7149023,15.6566406 C19.6003841,15.6566406 20.043125,14.9458008 20.043125,13.5241211 C20.043125,12.8349935 19.9312598,12.3077637 19.7075293,11.9424316 C19.4837988,11.5770996 19.1529232,11.3944336 18.7149023,11.3944336 C17.8369727,11.3944336 17.3980078,12.1043294 17.3980078,13.5241211 C17.3980078,14.2151367 17.509401,14.7433105 17.7321875,15.1086426 C17.954974,15.4739746 18.2825456,15.6566406 18.7149023,15.6566406 Z M18.7149023,15.2176758 C18.4411393,15.2176758 18.2405371,15.0855143 18.1130957,14.8211914 C17.9856543,14.5568685 17.9219336,14.1245117 17.9219336,13.5241211 C17.9219336,12.9256185 17.9856543,12.4946777 18.1130957,12.2312988 C18.2405371,11.9679199 18.4411393,11.8362305 18.7149023,11.8362305 C18.9924414,11.8362305 19.1963477,11.9688639 19.3266211,12.2341309 C19.4568945,12.4993978 19.5220312,12.9293945 19.5220312,13.5241211 C19.5220312,14.1226237 19.4568945,14.5545085 19.3266211,14.8197754 C19.1963477,15.0850423 18.9924414,15.2176758 18.7149023,15.2176758 Z M22.3754687,15.6566406 C23.2609505,15.6566406 23.7036914,14.9458008 23.7036914,13.5241211 C23.7036914,12.8349935 23.5918262,12.3077637 23.3680957,11.9424316 C23.1443652,11.5770996 22.8134896,11.3944336 22.3754687,11.3944336 C21.4975391,11.3944336 21.0585742,12.1043294 21.0585742,13.5241211 C21.0585742,14.2151367 21.1699674,14.7433105 21.3927539,15.1086426 C21.6155404,15.4739746 21.943112,15.6566406 22.3754687,15.6566406 Z M22.3754687,15.2176758 C22.1017057,15.2176758 21.9011035,15.0855143 21.7736621,14.8211914 C21.6462207,14.5568685 21.5825,14.1245117 21.5825,13.5241211 C21.5825,12.9256185 21.6462207,12.4946777 21.7736621,12.2312988 C21.9011035,11.9679199 22.1017057,11.8362305 22.3754687,11.8362305 C22.6530078,11.8362305 22.8569141,11.9688639 22.9871875,12.2341309 C23.1174609,12.4993978 23.1825977,12.9293945 23.1825977,13.5241211 C23.1825977,14.1226237 23.1174609,14.5545085 22.9871875,14.8197754 C22.8569141,15.0850423 22.6530078,15.2176758 22.3754687,15.2176758 Z M26.4495117,15.6 L26.4495117,11.4595703 L26.024707,11.4595703 L24.9400391,12.3063477 L25.2147461,12.6546875 L25.6310547,12.3120117 C25.7858724,12.1798503 25.9000977,12.0731771 25.9737305,11.9919922 C25.9586263,12.4432292 25.9510742,12.7840169 25.9510742,13.0143555 L25.9510742,15.6 L26.4495117,15.6 Z M30.1100781,15.6 L30.1100781,11.4595703 L29.6852734,11.4595703 L28.6006055,12.3063477 L28.8753125,12.6546875 L29.2916211,12.3120117 C29.4464388,12.1798503 29.5606641,12.0731771 29.6342969,11.9919922 C29.6191927,12.4432292 29.6116406,12.7840169 29.6116406,13.0143555 L29.6116406,13.0143555 L29.6116406,15.6 L30.1100781,15.6 Z M33.357168,15.6566406 C34.2426497,15.6566406 34.6853906,14.9458008 34.6853906,13.5241211 C34.6853906,12.8349935 34.5735254,12.3077637 34.3497949,11.9424316 C34.1260645,11.5770996 33.7951888,11.3944336 33.357168,11.3944336 C32.4792383,11.3944336 32.0402734,12.1043294 32.0402734,13.5241211 C32.0402734,14.2151367 32.1516667,14.7433105 32.3744531,15.1086426 C32.5972396,15.4739746 32.9248112,15.6566406 33.357168,15.6566406 Z M33.357168,15.2176758 C33.0834049,15.2176758 32.8828027,15.0855143 32.7553613,14.8211914 C32.6279199,14.5568685 32.5641992,14.1245117 32.5641992,13.5241211 C32.5641992,12.9256185 32.6279199,12.4946777 32.7553613,12.2312988 C32.8828027,11.9679199 33.0834049,11.8362305 33.357168,11.8362305 C33.634707,11.8362305 33.8386133,11.9688639 33.9688867,12.2341309 C34.0991602,12.4993978 34.1642969,12.9293945 34.1642969,13.5241211 C34.1642969,14.1226237 34.0991602,14.5545085 33.9688867,14.8197754 C33.8386133,15.0850423 33.634707,15.2176758 33.357168,15.2176758 Z M37.0177344,15.6566406 C37.9032161,15.6566406 38.345957,14.9458008 38.345957,13.5241211 C38.345957,12.8349935 38.2340918,12.3077637 38.0103613,11.9424316 C37.7866309,11.5770996 37.4557552,11.3944336 37.0177344,11.3944336 C36.1398047,11.3944336 35.7008398,12.1043294 35.7008398,13.5241211 C35.7008398,14.2151367 35.8122331,14.7433105 36.0350195,15.1086426 C36.257806,15.4739746 36.5853776,15.6566406 37.0177344,15.6566406 Z M37.0177344,15.2176758 C36.7439714,15.2176758 36.5433691,15.0855143 36.4159277,14.8211914 C36.2884863,14.5568685 36.2247656,14.1245117 36.2247656,13.5241211 C36.2247656,12.9256185 36.2884863,12.4946777 36.4159277,12.2312988 C36.5433691,11.9679199 36.7439714,11.8362305 37.0177344,11.8362305 C37.2952734,11.8362305 37.4991797,11.9688639 37.6294531,12.2341309 C37.7597266,12.4993978 37.8248633,12.9293945 37.8248633,13.5241211 C37.8248633,14.1226237 37.7597266,14.5545085 37.6294531,14.8197754 C37.4991797,15.0850423 37.2952734,15.2176758 37.0177344,15.2176758 Z M40.6783008,15.6566406 C41.5637826,15.6566406 42.0065234,14.9458008 42.0065234,13.5241211 C42.0065234,12.8349935 41.8946582,12.3077637 41.6709277,11.9424316 C41.4471973,11.5770996 41.1163216,11.3944336 40.6783008,11.3944336 C39.8003711,11.3944336 39.3614062,12.1043294 39.3614062,13.5241211 C39.3614062,14.2151367 39.4727995,14.7433105 39.6955859,15.1086426 C39.9183724,15.4739746 40.245944,15.6566406 40.6783008,15.6566406 Z M40.6783008,15.2176758 C40.4045378,15.2176758 40.2039355,15.0855143 40.0764941,14.8211914 C39.9490527,14.5568685 39.885332,14.1245117 39.885332,13.5241211 C39.885332,12.9256185 39.9490527,12.4946777 40.0764941,12.2312988 C40.2039355,11.9679199 40.4045378,11.8362305 40.6783008,11.8362305 C40.9558398,11.8362305 41.1597461,11.9688639 41.2900195,12.2341309 C41.420293,12.4993978 41.4854297,12.9293945 41.4854297,13.5241211 C41.4854297,14.1226237 41.420293,14.5545085 41.2900195,14.8197754 C41.1597461,15.0850423 40.9558398,15.2176758 40.6783008,15.2176758 Z M44.7523437,15.6 L44.7523437,11.4595703 L44.3275391,11.4595703 L43.2428711,12.3063477 L43.5175781,12.6546875 L43.9338867,12.3120117 C44.0887044,12.1798503 44.2029297,12.0731771 44.2765625,11.9919922 C44.2614583,12.4432292 44.2539062,12.7840169 44.2539062,13.0143555 L44.2539062,13.0143555 L44.2539062,15.6 L44.7523437,15.6 Z M48.4129102,15.6 L48.4129102,11.4595703 L47.9881055,11.4595703 L46.9034375,12.3063477 L47.1781445,12.6546875 L47.5944531,12.3120117 C47.7492708,12.1798503 47.8634961,12.0731771 47.9371289,11.9919922 C47.9220247,12.4432292 47.9144727,12.7840169 47.9144727,13.0143555 L47.9144727,13.0143555 L47.9144727,15.6 L48.4129102,15.6 Z M51.66,15.6566406 C52.5454818,15.6566406 52.9882227,14.9458008 52.9882227,13.5241211 C52.9882227,12.8349935 52.8763574,12.3077637 52.652627,11.9424316 C52.4288965,11.5770996 52.0980208,11.3944336 51.66,11.3944336 C50.7820703,11.3944336 50.3431055,12.1043294 50.3431055,13.5241211 C50.3431055,14.2151367 50.4544987,14.7433105 50.6772852,15.1086426 C50.9000716,15.4739746 51.2276432,15.6566406 51.66,15.6566406 Z M51.66,15.2176758 C51.386237,15.2176758 51.1856348,15.0855143 51.0581934,14.8211914 C50.930752,14.5568685 50.8670312,14.1245117 50.8670312,13.5241211 C50.8670312,12.9256185 50.930752,12.4946777 51.0581934,12.2312988 C51.1856348,11.9679199 51.386237,11.8362305 51.66,11.8362305 C51.9375391,11.8362305 52.1414453,11.9688639 52.2717187,12.2341309 C52.4019922,12.4993978 52.4671289,12.9293945 52.4671289,13.5241211 C52.4671289,14.1226237 52.4019922,14.5545085 52.2717187,14.8197754 C52.1414453,15.0850423 51.9375391,15.2176758 51.66,15.2176758 Z M55.734043,15.6 L55.734043,11.4595703 L55.3092383,11.4595703 L54.2245703,12.3063477 L54.4992773,12.6546875 L54.9155859,12.3120117 C55.0704036,12.1798503 55.1846289,12.0731771 55.2582617,11.9919922 C55.2431576,12.4432292 55.2356055,12.7840169 55.2356055,13.0143555 L55.2356055,13.0143555 L55.2356055,15.6 L55.734043,15.6 Z M58.9811328,15.6566406 C59.8666146,15.6566406 60.3093555,14.9458008 60.3093555,13.5241211 C60.3093555,12.8349935 60.1974902,12.3077637 59.9737598,11.9424316 C59.7500293,11.5770996 59.4191536,11.3944336 58.9811328,11.3944336 C58.1032031,11.3944336 57.6642383,12.1043294 57.6642383,13.5241211 C57.6642383,14.2151367 57.7756315,14.7433105 57.998418,15.1086426 C58.2212044,15.4739746 58.548776,15.6566406 58.9811328,15.6566406 Z M58.9811328,15.2176758 C58.7073698,15.2176758 58.5067676,15.0855143 58.3793262,14.8211914 C58.2518848,14.5568685 58.1881641,14.1245117 58.1881641,13.5241211 C58.1881641,12.9256185 58.2518848,12.4946777 58.3793262,12.2312988 C58.5067676,11.9679199 58.7073698,11.8362305 58.9811328,11.8362305 C59.2586719,11.8362305 59.4625781,11.9688639 59.5928516,12.2341309 C59.723125,12.4993978 59.7882617,12.9293945 59.7882617,13.5241211 C59.7882617,14.1226237 59.723125,14.5545085 59.5928516,14.8197754 C59.4625781,15.0850423 59.2586719,15.2176758 58.9811328,15.2176758 Z M62.6416992,15.6566406 C63.527181,15.6566406 63.9699219,14.9458008 63.9699219,13.5241211 C63.9699219,12.8349935 63.8580566,12.3077637 63.6343262,11.9424316 C63.4105957,11.5770996 63.0797201,11.3944336 62.6416992,11.3944336 C61.7637695,11.3944336 61.3248047,12.1043294 61.3248047,13.5241211 C61.3248047,14.2151367 61.4361979,14.7433105 61.6589844,15.1086426 C61.8817708,15.4739746 62.2093424,15.6566406 62.6416992,15.6566406 Z M62.6416992,15.2176758 C62.3679362,15.2176758 62.167334,15.0855143 62.0398926,14.8211914 C61.9124512,14.5568685 61.8487305,14.1245117 61.8487305,13.5241211 C61.8487305,12.9256185 61.9124512,12.4946777 62.0398926,12.2312988 C62.167334,11.9679199 62.3679362,11.8362305 62.6416992,11.8362305 C62.9192383,11.8362305 63.1231445,11.9688639 63.253418,12.2341309 C63.3836914,12.4993978 63.4488281,12.9293945 63.4488281,13.5241211 C63.4488281,14.1226237 63.3836914,14.5545085 63.253418,14.8197754 C63.1231445,15.0850423 62.9192383,15.2176758 62.6416992,15.2176758 Z M7.73320313,21.2566406 C8.6186849,21.2566406 9.06142578,20.5458008 9.06142578,19.1241211 C9.06142578,18.4349935 8.94956055,17.9077637 8.72583008,17.5424316 C8.50209961,17.1770996 8.17122396,16.9944336 7.73320313,16.9944336 C6.85527344,16.9944336 6.41630859,17.7043294 6.41630859,19.1241211 C6.41630859,19.8151367 6.52770182,20.3433105 6.75048828,20.7086426 C6.97327474,21.0739746 7.30084635,21.2566406 7.73320313,21.2566406 Z M7.73320313,20.8176758 C7.4594401,20.8176758 7.25883789,20.6855143 7.13139648,20.4211914 C7.00395508,20.1568685 6.94023438,19.7245117 6.94023438,19.1241211 C6.94023438,18.5256185 7.00395508,18.0946777 7.13139648,17.8312988 C7.25883789,17.5679199 7.4594401,17.4362305 7.73320313,17.4362305 C8.01074219,17.4362305 8.21464844,17.5688639 8.34492188,17.8341309 C8.47519531,18.0993978 8.54033203,18.5293945 8.54033203,19.1241211 C8.54033203,19.7226237 8.47519531,20.1545085 8.34492188,20.4197754 C8.21464844,20.6850423 8.01074219,20.8176758 7.73320313,20.8176758 Z M11.8072461,21.2 L11.8072461,17.0595703 L11.3824414,17.0595703 L10.2977734,17.9063477 L10.5724805,18.2546875 L10.9887891,17.9120117 C11.1436068,17.7798503 11.257832,17.6731771 11.3314648,17.5919922 C11.3163607,18.0432292 11.3088086,18.3840169 11.3088086,18.6143555 L11.3088086,18.6143555 L11.3088086,21.2 L11.8072461,21.2 Z M15.4678125,21.2 L15.4678125,17.0595703 L15.0430078,17.0595703 L13.9583398,17.9063477 L14.2330469,18.2546875 L14.6493555,17.9120117 C14.8041732,17.7798503 14.9183984,17.6731771 14.9920313,17.5919922 C14.9769271,18.0432292 14.969375,18.3840169 14.969375,18.6143555 L14.969375,18.6143555 L14.969375,21.2 L15.4678125,21.2 Z M18.7149023,21.2566406 C19.6003841,21.2566406 20.043125,20.5458008 20.043125,19.1241211 C20.043125,18.4349935 19.9312598,17.9077637 19.7075293,17.5424316 C19.4837988,17.1770996 19.1529232,16.9944336 18.7149023,16.9944336 C17.8369727,16.9944336 17.3980078,17.7043294 17.3980078,19.1241211 C17.3980078,19.8151367 17.509401,20.3433105 17.7321875,20.7086426 C17.954974,21.0739746 18.2825456,21.2566406 18.7149023,21.2566406 Z M18.7149023,20.8176758 C18.4411393,20.8176758 18.2405371,20.6855143 18.1130957,20.4211914 C17.9856543,20.1568685 17.9219336,19.7245117 17.9219336,19.1241211 C17.9219336,18.5256185 17.9856543,18.0946777 18.1130957,17.8312988 C18.2405371,17.5679199 18.4411393,17.4362305 18.7149023,17.4362305 C18.9924414,17.4362305 19.1963477,17.5688639 19.3266211,17.8341309 C19.4568945,18.0993978 19.5220312,18.5293945 19.5220312,19.1241211 C19.5220312,19.7226237 19.4568945,20.1545085 19.3266211,20.4197754 C19.1963477,20.6850423 18.9924414,20.8176758 18.7149023,20.8176758 Z M22.7889453,21.2 L22.7889453,17.0595703 L22.3641406,17.0595703 L21.2794727,17.9063477 L21.5541797,18.2546875 L21.9704883,17.9120117 C22.125306,17.7798503 22.2395313,17.6731771 22.3131641,17.5919922 C22.2980599,18.0432292 22.2905078,18.3840169 22.2905078,18.6143555 L22.2905078,18.6143555 L22.2905078,21.2 L22.7889453,21.2 Z M26.0360352,21.2566406 C26.9215169,21.2566406 27.3642578,20.5458008 27.3642578,19.1241211 C27.3642578,18.4349935 27.2523926,17.9077637 27.0286621,17.5424316 C26.8049316,17.1770996 26.474056,16.9944336 26.0360352,16.9944336 C25.1581055,16.9944336 24.7191406,17.7043294 24.7191406,19.1241211 C24.7191406,19.8151367 24.8305339,20.3433105 25.0533203,20.7086426 C25.2761068,21.0739746 25.6036784,21.2566406 26.0360352,21.2566406 Z M26.0360352,20.8176758 C25.7622721,20.8176758 25.5616699,20.6855143 25.4342285,20.4211914 C25.3067871,20.1568685 25.2430664,19.7245117 25.2430664,19.1241211 C25.2430664,18.5256185 25.3067871,18.0946777 25.4342285,17.8312988 C25.5616699,17.5679199 25.7622721,17.4362305 26.0360352,17.4362305 C26.3135742,17.4362305 26.5174805,17.5688639 26.6477539,17.8341309 C26.7780273,18.0993978 26.8431641,18.5293945 26.8431641,19.1241211 C26.8431641,19.7226237 26.7780273,20.1545085 26.6477539,20.4197754 C26.5174805,20.6850423 26.3135742,20.8176758 26.0360352,20.8176758 Z M30.1100781,21.2 L30.1100781,17.0595703 L29.6852734,17.0595703 L28.6006055,17.9063477 L28.8753125,18.2546875 L29.2916211,17.9120117 C29.4464388,17.7798503 29.5606641,17.6731771 29.6342969,17.5919922 C29.6191927,18.0432292 29.6116406,18.3840169 29.6116406,18.6143555 L29.6116406,18.6143555 L29.6116406,21.2 L30.1100781,21.2 Z M33.357168,21.2566406 C34.2426497,21.2566406 34.6853906,20.5458008 34.6853906,19.1241211 C34.6853906,18.4349935 34.5735254,17.9077637 34.3497949,17.5424316 C34.1260645,17.1770996 33.7951888,16.9944336 33.357168,16.9944336 C32.4792383,16.9944336 32.0402734,17.7043294 32.0402734,19.1241211 C32.0402734,19.8151367 32.1516667,20.3433105 32.3744531,20.7086426 C32.5972396,21.0739746 32.9248112,21.2566406 33.357168,21.2566406 Z M33.357168,20.8176758 C33.0834049,20.8176758 32.8828027,20.6855143 32.7553613,20.4211914 C32.6279199,20.1568685 32.5641992,19.7245117 32.5641992,19.1241211 C32.5641992,18.5256185 32.6279199,18.0946777 32.7553613,17.8312988 C32.8828027,17.5679199 33.0834049,17.4362305 33.357168,17.4362305 C33.634707,17.4362305 33.8386133,17.5688639 33.9688867,17.8341309 C34.0991602,18.0993978 34.1642969,18.5293945 34.1642969,19.1241211 C34.1642969,19.7226237 34.0991602,20.1545085 33.9688867,20.4197754 C33.8386133,20.6850423 33.634707,20.8176758 33.357168,20.8176758 Z M37.4312109,21.2 L37.4312109,17.0595703 L37.0064062,17.0595703 L35.9217383,17.9063477 L36.1964453,18.2546875 L36.6127539,17.9120117 C36.7675716,17.7798503 36.8817969,17.6731771 36.9554297,17.5919922 C36.9403255,18.0432292 36.9327734,18.3840169 36.9327734,18.6143555 L36.9327734,18.6143555 L36.9327734,21.2 L37.4312109,21.2 Z M40.6783008,21.2566406 C41.5637826,21.2566406 42.0065234,20.5458008 42.0065234,19.1241211 C42.0065234,18.4349935 41.8946582,17.9077637 41.6709277,17.5424316 C41.4471973,17.1770996 41.1163216,16.9944336 40.6783008,16.9944336 C39.8003711,16.9944336 39.3614062,17.7043294 39.3614062,19.1241211 C39.3614062,19.8151367 39.4727995,20.3433105 39.6955859,20.7086426 C39.9183724,21.0739746 40.245944,21.2566406 40.6783008,21.2566406 Z M40.6783008,20.8176758 C40.4045378,20.8176758 40.2039355,20.6855143 40.0764941,20.4211914 C39.9490527,20.1568685 39.885332,19.7245117 39.885332,19.1241211 C39.885332,18.5256185 39.9490527,18.0946777 40.0764941,17.8312988 C40.2039355,17.5679199 40.4045378,17.4362305 40.6783008,17.4362305 C40.9558398,17.4362305 41.1597461,17.5688639 41.2900195,17.8341309 C41.420293,18.0993978 41.4854297,18.5293945 41.4854297,19.1241211 C41.4854297,19.7226237 41.420293,20.1545085 41.2900195,20.4197754 C41.1597461,20.6850423 40.9558398,20.8176758 40.6783008,20.8176758 Z M44.3388672,21.2566406 C45.224349,21.2566406 45.6670898,20.5458008 45.6670898,19.1241211 C45.6670898,18.4349935 45.5552246,17.9077637 45.3314941,17.5424316 C45.1077637,17.1770996 44.776888,16.9944336 44.3388672,16.9944336 C43.4609375,16.9944336 43.0219727,17.7043294 43.0219727,19.1241211 C43.0219727,19.8151367 43.1333659,20.3433105 43.3561523,20.7086426 C43.5789388,21.0739746 43.9065104,21.2566406 44.3388672,21.2566406 Z M44.3388672,20.8176758 C44.0651042,20.8176758 43.864502,20.6855143 43.7370605,20.4211914 C43.6096191,20.1568685 43.5458984,19.7245117 43.5458984,19.1241211 C43.5458984,18.5256185 43.6096191,18.0946777 43.7370605,17.8312988 C43.864502,17.5679199 44.0651042,17.4362305 44.3388672,17.4362305 C44.6164062,17.4362305 44.8203125,17.5688639 44.9505859,17.8341309 C45.0808594,18.0993978 45.1459961,18.5293945 45.1459961,19.1241211 C45.1459961,19.7226237 45.0808594,20.1545085 44.9505859,20.4197754 C44.8203125,20.6850423 44.6164062,20.8176758 44.3388672,20.8176758 Z M48.4129102,21.2 L48.4129102,17.0595703 L47.9881055,17.0595703 L46.9034375,17.9063477 L47.1781445,18.2546875 L47.5944531,17.9120117 C47.7492708,17.7798503 47.8634961,17.6731771 47.9371289,17.5919922 C47.9220247,18.0432292 47.9144727,18.3840169 47.9144727,18.6143555 L47.9144727,18.6143555 L47.9144727,21.2 L48.4129102,21.2 Z M52.0734766,21.2 L52.0734766,17.0595703 L51.6486719,17.0595703 L50.5640039,17.9063477 L50.8387109,18.2546875 L51.2550195,17.9120117 C51.4098372,17.7798503 51.5240625,17.6731771 51.5976953,17.5919922 C51.5825911,18.0432292 51.5750391,18.3840169 51.5750391,18.6143555 L51.5750391,21.2 L52.0734766,21.2 Z M55.3205664,21.2566406 C56.2060482,21.2566406 56.6487891,20.5458008 56.6487891,19.1241211 C56.6487891,18.4349935 56.5369238,17.9077637 56.3131934,17.5424316 C56.0894629,17.1770996 55.7585872,16.9944336 55.3205664,16.9944336 C54.4426367,16.9944336 54.0036719,17.7043294 54.0036719,19.1241211 C54.0036719,19.8151367 54.1150651,20.3433105 54.3378516,20.7086426 C54.560638,21.0739746 54.8882096,21.2566406 55.3205664,21.2566406 Z M55.3205664,20.8176758 C55.0468034,20.8176758 54.8462012,20.6855143 54.7187598,20.4211914 C54.5913184,20.1568685 54.5275977,19.7245117 54.5275977,19.1241211 C54.5275977,18.5256185 54.5913184,18.0946777 54.7187598,17.8312988 C54.8462012,17.5679199 55.0468034,17.4362305 55.3205664,17.4362305 C55.5981055,17.4362305 55.8020117,17.5688639 55.9322852,17.8341309 C56.0625586,18.0993978 56.1276953,18.5293945 56.1276953,19.1241211 C56.1276953,19.7226237 56.0625586,20.1545085 55.9322852,20.4197754 C55.8020117,20.6850423 55.5981055,20.8176758 55.3205664,20.8176758 Z M58.9811328,21.2566406 C59.8666146,21.2566406 60.3093555,20.5458008 60.3093555,19.1241211 C60.3093555,18.4349935 60.1974902,17.9077637 59.9737598,17.5424316 C59.7500293,17.1770996 59.4191536,16.9944336 58.9811328,16.9944336 C58.1032031,16.9944336 57.6642383,17.7043294 57.6642383,19.1241211 C57.6642383,19.8151367 57.7756315,20.3433105 57.998418,20.7086426 C58.2212044,21.0739746 58.548776,21.2566406 58.9811328,21.2566406 Z M58.9811328,20.8176758 C58.7073698,20.8176758 58.5067676,20.6855143 58.3793262,20.4211914 C58.2518848,20.1568685 58.1881641,19.7245117 58.1881641,19.1241211 C58.1881641,18.5256185 58.2518848,18.0946777 58.3793262,17.8312988 C58.5067676,17.5679199 58.7073698,17.4362305 58.9811328,17.4362305 C59.2586719,17.4362305 59.4625781,17.5688639 59.5928516,17.8341309 C59.723125,18.0993978 59.7882617,18.5293945 59.7882617,19.1241211 C59.7882617,19.7226237 59.723125,20.1545085 59.5928516,20.4197754 C59.4625781,20.6850423 59.2586719,20.8176758 58.9811328,20.8176758 Z M62.6416992,21.2566406 C63.527181,21.2566406 63.9699219,20.5458008 63.9699219,19.1241211 C63.9699219,18.4349935 63.8580566,17.9077637 63.6343262,17.5424316 C63.4105957,17.1770996 63.0797201,16.9944336 62.6416992,16.9944336 C61.7637695,16.9944336 61.3248047,17.7043294 61.3248047,19.1241211 C61.3248047,19.8151367 61.4361979,20.3433105 61.6589844,20.7086426 C61.8817708,21.0739746 62.2093424,21.2566406 62.6416992,21.2566406 Z M62.6416992,20.8176758 C62.3679362,20.8176758 62.167334,20.6855143 62.0398926,20.4211914 C61.9124512,20.1568685 61.8487305,19.7245117 61.8487305,19.1241211 C61.8487305,18.5256185 61.9124512,18.0946777 62.0398926,17.8312988 C62.167334,17.5679199 62.3679362,17.4362305 62.6416992,17.4362305 C62.9192383,17.4362305 63.1231445,17.5688639 63.253418,17.8341309 C63.3836914,18.0993978 63.4488281,18.5293945 63.4488281,19.1241211 C63.4488281,19.7226237 63.3836914,20.1545085 63.253418,20.4197754 C63.1231445,20.6850423 62.9192383,20.8176758 62.6416992,20.8176758 Z M8.14667969,26.8 L8.14667969,22.6595703 L7.721875,22.6595703 L6.63720703,23.5063477 L6.91191406,23.8546875 L7.32822266,23.5120117 C7.48304036,23.3798503 7.59726562,23.2731771 7.67089844,23.1919922 C7.65579427,23.6432292 7.64824219,23.9840169 7.64824219,24.2143555 L7.64824219,26.8 L8.14667969,26.8 Z M11.8072461,26.8 L11.8072461,22.6595703 L11.3824414,22.6595703 L10.2977734,23.5063477 L10.5724805,23.8546875 L10.9887891,23.5120117 C11.1436068,23.3798503 11.257832,23.2731771 11.3314648,23.1919922 C11.3163607,23.6432292 11.3088086,23.9840169 11.3088086,24.2143555 L11.3088086,24.2143555 L11.3088086,26.8 L11.8072461,26.8 Z M15.4678125,26.8 L15.4678125,22.6595703 L15.0430078,22.6595703 L13.9583398,23.5063477 L14.2330469,23.8546875 L14.6493555,23.5120117 C14.8041732,23.3798503 14.9183984,23.2731771 14.9920313,23.1919922 C14.9769271,23.6432292 14.969375,23.9840169 14.969375,24.2143555 L14.969375,24.2143555 L14.969375,26.8 L15.4678125,26.8 Z M18.7149023,26.8566406 C19.6003841,26.8566406 20.043125,26.1458008 20.043125,24.7241211 C20.043125,24.0349935 19.9312598,23.5077637 19.7075293,23.1424316 C19.4837988,22.7770996 19.1529232,22.5944336 18.7149023,22.5944336 C17.8369727,22.5944336 17.3980078,23.3043294 17.3980078,24.7241211 C17.3980078,25.4151367 17.509401,25.9433105 17.7321875,26.3086426 C17.954974,26.6739746 18.2825456,26.8566406 18.7149023,26.8566406 Z M18.7149023,26.4176758 C18.4411393,26.4176758 18.2405371,26.2855143 18.1130957,26.0211914 C17.9856543,25.7568685 17.9219336,25.3245117 17.9219336,24.7241211 C17.9219336,24.1256185 17.9856543,23.6946777 18.1130957,23.4312988 C18.2405371,23.1679199 18.4411393,23.0362305 18.7149023,23.0362305 C18.9924414,23.0362305 19.1963477,23.1688639 19.3266211,23.4341309 C19.4568945,23.6993978 19.5220312,24.1293945 19.5220312,24.7241211 C19.5220312,25.3226237 19.4568945,25.7545085 19.3266211,26.0197754 C19.1963477,26.2850423 18.9924414,26.4176758 18.7149023,26.4176758 Z M22.7889453,26.8 L22.7889453,22.6595703 L22.3641406,22.6595703 L21.2794727,23.5063477 L21.5541797,23.8546875 L21.9704883,23.5120117 C22.125306,23.3798503 22.2395313,23.2731771 22.3131641,23.1919922 C22.2980599,23.6432292 22.2905078,23.9840169 22.2905078,24.2143555 L22.2905078,24.2143555 L22.2905078,26.8 L22.7889453,26.8 Z M26.0360352,26.8566406 C26.9215169,26.8566406 27.3642578,26.1458008 27.3642578,24.7241211 C27.3642578,24.0349935 27.2523926,23.5077637 27.0286621,23.1424316 C26.8049316,22.7770996 26.474056,22.5944336 26.0360352,22.5944336 C25.1581055,22.5944336 24.7191406,23.3043294 24.7191406,24.7241211 C24.7191406,25.4151367 24.8305339,25.9433105 25.0533203,26.3086426 C25.2761068,26.6739746 25.6036784,26.8566406 26.0360352,26.8566406 Z M26.0360352,26.4176758 C25.7622721,26.4176758 25.5616699,26.2855143 25.4342285,26.0211914 C25.3067871,25.7568685 25.2430664,25.3245117 25.2430664,24.7241211 C25.2430664,24.1256185 25.3067871,23.6946777 25.4342285,23.4312988 C25.5616699,23.1679199 25.7622721,23.0362305 26.0360352,23.0362305 C26.3135742,23.0362305 26.5174805,23.1688639 26.6477539,23.4341309 C26.7780273,23.6993978 26.8431641,24.1293945 26.8431641,24.7241211 C26.8431641,25.3226237 26.7780273,25.7545085 26.6477539,26.0197754 C26.5174805,26.2850423 26.3135742,26.4176758 26.0360352,26.4176758 Z M29.6966016,26.8566406 C30.5820833,26.8566406 31.0248242,26.1458008 31.0248242,24.7241211 C31.0248242,24.0349935 30.912959,23.5077637 30.6892285,23.1424316 C30.465498,22.7770996 30.1346224,22.5944336 29.6966016,22.5944336 C28.8186719,22.5944336 28.379707,23.3043294 28.379707,24.7241211 C28.379707,25.4151367 28.4911003,25.9433105 28.7138867,26.3086426 C28.9366732,26.6739746 29.2642448,26.8566406 29.6966016,26.8566406 Z M29.6966016,26.4176758 C29.4228385,26.4176758 29.2222363,26.2855143 29.0947949,26.0211914 C28.9673535,25.7568685 28.9036328,25.3245117 28.9036328,24.7241211 C28.9036328,24.1256185 28.9673535,23.6946777 29.0947949,23.4312988 C29.2222363,23.1679199 29.4228385,23.0362305 29.6966016,23.0362305 C29.9741406,23.0362305 30.1780469,23.1688639 30.3083203,23.4341309 C30.4385937,23.6993978 30.5037305,24.1293945 30.5037305,24.7241211 C30.5037305,25.3226237 30.4385937,25.7545085 30.3083203,26.0197754 C30.1780469,26.2850423 29.9741406,26.4176758 29.6966016,26.4176758 Z M33.7706445,26.8 L33.7706445,22.6595703 L33.3458398,22.6595703 L32.2611719,23.5063477 L32.5358789,23.8546875 L32.9521875,23.5120117 C33.1070052,23.3798503 33.2212305,23.2731771 33.2948633,23.1919922 C33.2797591,23.6432292 33.272207,23.9840169 33.272207,24.2143555 L33.272207,26.8 L33.7706445,26.8 Z M37.4312109,26.8 L37.4312109,22.6595703 L37.0064062,22.6595703 L35.9217383,23.5063477 L36.1964453,23.8546875 L36.6127539,23.5120117 C36.7675716,23.3798503 36.8817969,23.2731771 36.9554297,23.1919922 C36.9403255,23.6432292 36.9327734,23.9840169 36.9327734,24.2143555 L36.9327734,24.2143555 L36.9327734,26.8 L37.4312109,26.8 Z M40.6783008,26.8566406 C41.5637826,26.8566406 42.0065234,26.1458008 42.0065234,24.7241211 C42.0065234,24.0349935 41.8946582,23.5077637 41.6709277,23.1424316 C41.4471973,22.7770996 41.1163216,22.5944336 40.6783008,22.5944336 C39.8003711,22.5944336 39.3614062,23.3043294 39.3614062,24.7241211 C39.3614062,25.4151367 39.4727995,25.9433105 39.6955859,26.3086426 C39.9183724,26.6739746 40.245944,26.8566406 40.6783008,26.8566406 Z M40.6783008,26.4176758 C40.4045378,26.4176758 40.2039355,26.2855143 40.0764941,26.0211914 C39.9490527,25.7568685 39.885332,25.3245117 39.885332,24.7241211 C39.885332,24.1256185 39.9490527,23.6946777 40.0764941,23.4312988 C40.2039355,23.1679199 40.4045378,23.0362305 40.6783008,23.0362305 C40.9558398,23.0362305 41.1597461,23.1688639 41.2900195,23.4341309 C41.420293,23.6993978 41.4854297,24.1293945 41.4854297,24.7241211 C41.4854297,25.3226237 41.420293,25.7545085 41.2900195,26.0197754 C41.1597461,26.2850423 40.9558398,26.4176758 40.6783008,26.4176758 Z M44.3388672,26.8566406 C45.224349,26.8566406 45.6670898,26.1458008 45.6670898,24.7241211 C45.6670898,24.0349935 45.5552246,23.5077637 45.3314941,23.1424316 C45.1077637,22.7770996 44.776888,22.5944336 44.3388672,22.5944336 C43.4609375,22.5944336 43.0219727,23.3043294 43.0219727,24.7241211 C43.0219727,25.4151367 43.1333659,25.9433105 43.3561523,26.3086426 C43.5789388,26.6739746 43.9065104,26.8566406 44.3388672,26.8566406 Z M44.3388672,26.4176758 C44.0651042,26.4176758 43.864502,26.2855143 43.7370605,26.0211914 C43.6096191,25.7568685 43.5458984,25.3245117 43.5458984,24.7241211 C43.5458984,24.1256185 43.6096191,23.6946777 43.7370605,23.4312988 C43.864502,23.1679199 44.0651042,23.0362305 44.3388672,23.0362305 C44.6164062,23.0362305 44.8203125,23.1688639 44.9505859,23.4341309 C45.0808594,23.6993978 45.1459961,24.1293945 45.1459961,24.7241211 C45.1459961,25.3226237 45.0808594,25.7545085 44.9505859,26.0197754 C44.8203125,26.2850423 44.6164062,26.4176758 44.3388672,26.4176758 Z M48.4129102,26.8 L48.4129102,22.6595703 L47.9881055,22.6595703 L46.9034375,23.5063477 L47.1781445,23.8546875 L47.5944531,23.5120117 C47.7492708,23.3798503 47.8634961,23.2731771 47.9371289,23.1919922 C47.9220247,23.6432292 47.9144727,23.9840169 47.9144727,24.2143555 L47.9144727,24.2143555 L47.9144727,26.8 L48.4129102,26.8 Z M52.0734766,26.8 L52.0734766,22.6595703 L51.6486719,22.6595703 L50.5640039,23.5063477 L50.8387109,23.8546875 L51.2550195,23.5120117 C51.4098372,23.3798503 51.5240625,23.2731771 51.5976953,23.1919922 C51.5825911,23.6432292 51.5750391,23.9840169 51.5750391,24.2143555 L51.5750391,26.8 L52.0734766,26.8 Z M55.734043,26.8 L55.734043,22.6595703 L55.3092383,22.6595703 L54.2245703,23.5063477 L54.4992773,23.8546875 L54.9155859,23.5120117 C55.0704036,23.3798503 55.1846289,23.2731771 55.2582617,23.1919922 C55.2431576,23.6432292 55.2356055,23.9840169 55.2356055,24.2143555 L55.2356055,24.2143555 L55.2356055,26.8 L55.734043,26.8 Z M59.3946094,26.8 L59.3946094,22.6595703 L58.9698047,22.6595703 L57.8851367,23.5063477 L58.1598437,23.8546875 L58.5761523,23.5120117 C58.7309701,23.3798503 58.8451953,23.2731771 58.9188281,23.1919922 C58.903724,23.6432292 58.8961719,23.9840169 58.8961719,24.2143555 L58.8961719,26.8 L59.3946094,26.8 Z M62.6416992,26.8566406 C63.527181,26.8566406 63.9699219,26.1458008 63.9699219,24.7241211 C63.9699219,24.0349935 63.8580566,23.5077637 63.6343262,23.1424316 C63.4105957,22.7770996 63.0797201,22.5944336 62.6416992,22.5944336 C61.7637695,22.5944336 61.3248047,23.3043294 61.3248047,24.7241211 C61.3248047,25.4151367 61.4361979,25.9433105 61.6589844,26.3086426 C61.8817708,26.6739746 62.2093424,26.8566406 62.6416992,26.8566406 Z M62.6416992,26.4176758 C62.3679362,26.4176758 62.167334,26.2855143 62.0398926,26.0211914 C61.9124512,25.7568685 61.8487305,25.3245117 61.8487305,24.7241211 C61.8487305,24.1256185 61.9124512,23.6946777 62.0398926,23.4312988 C62.167334,23.1679199 62.3679362,23.0362305 62.6416992,23.0362305 C62.9192383,23.0362305 63.1231445,23.1688639 63.253418,23.4341309 C63.3836914,23.6993978 63.4488281,24.1293945 63.4488281,24.7241211 C63.4488281,25.3226237 63.3836914,25.7545085 63.253418,26.0197754 C63.1231445,26.2850423 62.9192383,26.4176758 62.6416992,26.4176758 Z M8.14667969,32.4 L8.14667969,28.2595703 L7.721875,28.2595703 L6.63720703,29.1063477 L6.91191406,29.4546875 L7.32822266,29.1120117 C7.48304036,28.9798503 7.59726562,28.8731771 7.67089844,28.7919922 C7.65579427,29.2432292 7.64824219,29.5840169 7.64824219,29.8143555 L7.64824219,32.4 L8.14667969,32.4 Z M11.3937695,32.4566406 C12.2792513,32.4566406 12.7219922,31.7458008 12.7219922,30.3241211 C12.7219922,29.6349935 12.610127,29.1077637 12.3863965,28.7424316 C12.162666,28.3770996 11.8317904,28.1944336 11.3937695,28.1944336 C10.5158398,28.1944336 10.076875,28.9043294 10.076875,30.3241211 C10.076875,31.0151367 10.1882682,31.5433105 10.4110547,31.9086426 C10.6338411,32.2739746 10.9614128,32.4566406 11.3937695,32.4566406 Z M11.3937695,32.0176758 C11.1200065,32.0176758 10.9194043,31.8855143 10.7919629,31.6211914 C10.6645215,31.3568685 10.6008008,30.9245117 10.6008008,30.3241211 C10.6008008,29.7256185 10.6645215,29.2946777 10.7919629,29.0312988 C10.9194043,28.7679199 11.1200065,28.6362305 11.3937695,28.6362305 C11.6713086,28.6362305 11.8752148,28.7688639 12.0054883,29.0341309 C12.1357617,29.2993978 12.2008984,29.7293945 12.2008984,30.3241211 C12.2008984,30.9226237 12.1357617,31.3545085 12.0054883,31.6197754 C11.8752148,31.8850423 11.6713086,32.0176758 11.3937695,32.0176758 Z M15.4678125,32.4 L15.4678125,28.2595703 L15.0430078,28.2595703 L13.9583398,29.1063477 L14.2330469,29.4546875 L14.6493555,29.1120117 C14.8041732,28.9798503 14.9183984,28.8731771 14.9920313,28.7919922 C14.9769271,29.2432292 14.969375,29.5840169 14.969375,29.8143555 L14.969375,29.8143555 L14.969375,32.4 L15.4678125,32.4 Z M18.7149023,32.4566406 C19.6003841,32.4566406 20.043125,31.7458008 20.043125,30.3241211 C20.043125,29.6349935 19.9312598,29.1077637 19.7075293,28.7424316 C19.4837988,28.3770996 19.1529232,28.1944336 18.7149023,28.1944336 C17.8369727,28.1944336 17.3980078,28.9043294 17.3980078,30.3241211 C17.3980078,31.0151367 17.509401,31.5433105 17.7321875,31.9086426 C17.954974,32.2739746 18.2825456,32.4566406 18.7149023,32.4566406 Z M18.7149023,32.0176758 C18.4411393,32.0176758 18.2405371,31.8855143 18.1130957,31.6211914 C17.9856543,31.3568685 17.9219336,30.9245117 17.9219336,30.3241211 C17.9219336,29.7256185 17.9856543,29.2946777 18.1130957,29.0312988 C18.2405371,28.7679199 18.4411393,28.6362305 18.7149023,28.6362305 C18.9924414,28.6362305 19.1963477,28.7688639 19.3266211,29.0341309 C19.4568945,29.2993978 19.5220312,29.7293945 19.5220312,30.3241211 C19.5220312,30.9226237 19.4568945,31.3545085 19.3266211,31.6197754 C19.1963477,31.8850423 18.9924414,32.0176758 18.7149023,32.0176758 Z M22.7889453,32.4 L22.7889453,28.2595703 L22.3641406,28.2595703 L21.2794727,29.1063477 L21.5541797,29.4546875 L21.9704883,29.1120117 C22.125306,28.9798503 22.2395313,28.8731771 22.3131641,28.7919922 C22.2980599,29.2432292 22.2905078,29.5840169 22.2905078,29.8143555 L22.2905078,29.8143555 L22.2905078,32.4 L22.7889453,32.4 Z M26.0360352,32.4566406 C26.9215169,32.4566406 27.3642578,31.7458008 27.3642578,30.3241211 C27.3642578,29.6349935 27.2523926,29.1077637 27.0286621,28.7424316 C26.8049316,28.3770996 26.474056,28.1944336 26.0360352,28.1944336 C25.1581055,28.1944336 24.7191406,28.9043294 24.7191406,30.3241211 C24.7191406,31.0151367 24.8305339,31.5433105 25.0533203,31.9086426 C25.2761068,32.2739746 25.6036784,32.4566406 26.0360352,32.4566406 Z M26.0360352,32.0176758 C25.7622721,32.0176758 25.5616699,31.8855143 25.4342285,31.6211914 C25.3067871,31.3568685 25.2430664,30.9245117 25.2430664,30.3241211 C25.2430664,29.7256185 25.3067871,29.2946777 25.4342285,29.0312988 C25.5616699,28.7679199 25.7622721,28.6362305 26.0360352,28.6362305 C26.3135742,28.6362305 26.5174805,28.7688639 26.6477539,29.0341309 C26.7780273,29.2993978 26.8431641,29.7293945 26.8431641,30.3241211 C26.8431641,30.9226237 26.7780273,31.3545085 26.6477539,31.6197754 C26.5174805,31.8850423 26.3135742,32.0176758 26.0360352,32.0176758 Z M30.1100781,32.4 L30.1100781,28.2595703 L29.6852734,28.2595703 L28.6006055,29.1063477 L28.8753125,29.4546875 L29.2916211,29.1120117 C29.4464388,28.9798503 29.5606641,28.8731771 29.6342969,28.7919922 C29.6191927,29.2432292 29.6116406,29.5840169 29.6116406,29.8143555 L29.6116406,29.8143555 L29.6116406,32.4 L30.1100781,32.4 Z M33.357168,32.4566406 C34.2426497,32.4566406 34.6853906,31.7458008 34.6853906,30.3241211 C34.6853906,29.6349935 34.5735254,29.1077637 34.3497949,28.7424316 C34.1260645,28.3770996 33.7951888,28.1944336 33.357168,28.1944336 C32.4792383,28.1944336 32.0402734,28.9043294 32.0402734,30.3241211 C32.0402734,31.0151367 32.1516667,31.5433105 32.3744531,31.9086426 C32.5972396,32.2739746 32.9248112,32.4566406 33.357168,32.4566406 Z M33.357168,32.0176758 C33.0834049,32.0176758 32.8828027,31.8855143 32.7553613,31.6211914 C32.6279199,31.3568685 32.5641992,30.9245117 32.5641992,30.3241211 C32.5641992,29.7256185 32.6279199,29.2946777 32.7553613,29.0312988 C32.8828027,28.7679199 33.0834049,28.6362305 33.357168,28.6362305 C33.634707,28.6362305 33.8386133,28.7688639 33.9688867,29.0341309 C34.0991602,29.2993978 34.1642969,29.7293945 34.1642969,30.3241211 C34.1642969,30.9226237 34.0991602,31.3545085 33.9688867,31.6197754 C33.8386133,31.8850423 33.634707,32.0176758 33.357168,32.0176758 Z M37.0177344,32.4566406 C37.9032161,32.4566406 38.345957,31.7458008 38.345957,30.3241211 C38.345957,29.6349935 38.2340918,29.1077637 38.0103613,28.7424316 C37.7866309,28.3770996 37.4557552,28.1944336 37.0177344,28.1944336 C36.1398047,28.1944336 35.7008398,28.9043294 35.7008398,30.3241211 C35.7008398,31.0151367 35.8122331,31.5433105 36.0350195,31.9086426 C36.257806,32.2739746 36.5853776,32.4566406 37.0177344,32.4566406 Z M37.0177344,32.0176758 C36.7439714,32.0176758 36.5433691,31.8855143 36.4159277,31.6211914 C36.2884863,31.3568685 36.2247656,30.9245117 36.2247656,30.3241211 C36.2247656,29.7256185 36.2884863,29.2946777 36.4159277,29.0312988 C36.5433691,28.7679199 36.7439714,28.6362305 37.0177344,28.6362305 C37.2952734,28.6362305 37.4991797,28.7688639 37.6294531,29.0341309 C37.7597266,29.2993978 37.8248633,29.7293945 37.8248633,30.3241211 C37.8248633,30.9226237 37.7597266,31.3545085 37.6294531,31.6197754 C37.4991797,31.8850423 37.2952734,32.0176758 37.0177344,32.0176758 Z M40.6783008,32.4566406 C41.5637826,32.4566406 42.0065234,31.7458008 42.0065234,30.3241211 C42.0065234,29.6349935 41.8946582,29.1077637 41.6709277,28.7424316 C41.4471973,28.3770996 41.1163216,28.1944336 40.6783008,28.1944336 C39.8003711,28.1944336 39.3614062,28.9043294 39.3614062,30.3241211 C39.3614062,31.0151367 39.4727995,31.5433105 39.6955859,31.9086426 C39.9183724,32.2739746 40.245944,32.4566406 40.6783008,32.4566406 Z M40.6783008,32.0176758 C40.4045378,32.0176758 40.2039355,31.8855143 40.0764941,31.6211914 C39.9490527,31.3568685 39.885332,30.9245117 39.885332,30.3241211 C39.885332,29.7256185 39.9490527,29.2946777 40.0764941,29.0312988 C40.2039355,28.7679199 40.4045378,28.6362305 40.6783008,28.6362305 C40.9558398,28.6362305 41.1597461,28.7688639 41.2900195,29.0341309 C41.420293,29.2993978 41.4854297,29.7293945 41.4854297,30.3241211 C41.4854297,30.9226237 41.420293,31.3545085 41.2900195,31.6197754 C41.1597461,31.8850423 40.9558398,32.0176758 40.6783008,32.0176758 Z M44.7523437,32.4 L44.7523437,28.2595703 L44.3275391,28.2595703 L43.2428711,29.1063477 L43.5175781,29.4546875 L43.9338867,29.1120117 C44.0887044,28.9798503 44.2029297,28.8731771 44.2765625,28.7919922 C44.2614583,29.2432292 44.2539062,29.5840169 44.2539062,29.8143555 L44.2539062,29.8143555 L44.2539062,32.4 L44.7523437,32.4 Z M47.9994336,32.4566406 C48.8849154,32.4566406 49.3276562,31.7458008 49.3276562,30.3241211 C49.3276562,29.6349935 49.215791,29.1077637 48.9920605,28.7424316 C48.7683301,28.3770996 48.4374544,28.1944336 47.9994336,28.1944336 C47.1215039,28.1944336 46.6825391,28.9043294 46.6825391,30.3241211 C46.6825391,31.0151367 46.7939323,31.5433105 47.0167187,31.9086426 C47.2395052,32.2739746 47.5670768,32.4566406 47.9994336,32.4566406 Z M47.9994336,32.0176758 C47.7256706,32.0176758 47.5250684,31.8855143 47.397627,31.6211914 C47.2701855,31.3568685 47.2064648,30.9245117 47.2064648,30.3241211 C47.2064648,29.7256185 47.2701855,29.2946777 47.397627,29.0312988 C47.5250684,28.7679199 47.7256706,28.6362305 47.9994336,28.6362305 C48.2769727,28.6362305 48.4808789,28.7688639 48.6111523,29.0341309 C48.7414258,29.2993978 48.8065625,29.7293945 48.8065625,30.3241211 C48.8065625,30.9226237 48.7414258,31.3545085 48.6111523,31.6197754 C48.4808789,31.8850423 48.2769727,32.0176758 47.9994336,32.0176758 Z M52.0734766,32.4 L52.0734766,28.2595703 L51.6486719,28.2595703 L50.5640039,29.1063477 L50.8387109,29.4546875 L51.2550195,29.1120117 C51.4098372,28.9798503 51.5240625,28.8731771 51.5976953,28.7919922 C51.5825911,29.2432292 51.5750391,29.5840169 51.5750391,29.8143555 L51.5750391,32.4 L52.0734766,32.4 Z M55.3205664,32.4566406 C56.2060482,32.4566406 56.6487891,31.7458008 56.6487891,30.3241211 C56.6487891,29.6349935 56.5369238,29.1077637 56.3131934,28.7424316 C56.0894629,28.3770996 55.7585872,28.1944336 55.3205664,28.1944336 C54.4426367,28.1944336 54.0036719,28.9043294 54.0036719,30.3241211 C54.0036719,31.0151367 54.1150651,31.5433105 54.3378516,31.9086426 C54.560638,32.2739746 54.8882096,32.4566406 55.3205664,32.4566406 Z M55.3205664,32.0176758 C55.0468034,32.0176758 54.8462012,31.8855143 54.7187598,31.6211914 C54.5913184,31.3568685 54.5275977,30.9245117 54.5275977,30.3241211 C54.5275977,29.7256185 54.5913184,29.2946777 54.7187598,29.0312988 C54.8462012,28.7679199 55.0468034,28.6362305 55.3205664,28.6362305 C55.5981055,28.6362305 55.8020117,28.7688639 55.9322852,29.0341309 C56.0625586,29.2993978 56.1276953,29.7293945 56.1276953,30.3241211 C56.1276953,30.9226237 56.0625586,31.3545085 55.9322852,31.6197754 C55.8020117,31.8850423 55.5981055,32.0176758 55.3205664,32.0176758 Z M59.3946094,32.4 L59.3946094,28.2595703 L58.9698047,28.2595703 L57.8851367,29.1063477 L58.1598437,29.4546875 L58.5761523,29.1120117 C58.7309701,28.9798503 58.8451953,28.8731771 58.9188281,28.7919922 C58.903724,29.2432292 58.8961719,29.5840169 58.8961719,29.8143555 L58.8961719,32.4 L59.3946094,32.4 Z M62.6416992,32.4566406 C63.527181,32.4566406 63.9699219,31.7458008 63.9699219,30.3241211 C63.9699219,29.6349935 63.8580566,29.1077637 63.6343262,28.7424316 C63.4105957,28.3770996 63.0797201,28.1944336 62.6416992,28.1944336 C61.7637695,28.1944336 61.3248047,28.9043294 61.3248047,30.3241211 C61.3248047,31.0151367 61.4361979,31.5433105 61.6589844,31.9086426 C61.8817708,32.2739746 62.2093424,32.4566406 62.6416992,32.4566406 Z M62.6416992,32.0176758 C62.3679362,32.0176758 62.167334,31.8855143 62.0398926,31.6211914 C61.9124512,31.3568685 61.8487305,30.9245117 61.8487305,30.3241211 C61.8487305,29.7256185 61.9124512,29.2946777 62.0398926,29.0312988 C62.167334,28.7679199 62.3679362,28.6362305 62.6416992,28.6362305 C62.9192383,28.6362305 63.1231445,28.7688639 63.253418,29.0341309 C63.3836914,29.2993978 63.4488281,29.7293945 63.4488281,30.3241211 C63.4488281,30.9226237 63.3836914,31.3545085 63.253418,31.6197754 C63.1231445,31.8850423 62.9192383,32.0176758 62.6416992,32.0176758 Z M7.73320313,38.0566406 C8.6186849,38.0566406 9.06142578,37.3458008 9.06142578,35.9241211 C9.06142578,35.2349935 8.94956055,34.7077637 8.72583008,34.3424316 C8.50209961,33.9770996 8.17122396,33.7944336 7.73320313,33.7944336 C6.85527344,33.7944336 6.41630859,34.5043294 6.41630859,35.9241211 C6.41630859,36.6151367 6.52770182,37.1433105 6.75048828,37.5086426 C6.97327474,37.8739746 7.30084635,38.0566406 7.73320313,38.0566406 Z M7.73320313,37.6176758 C7.4594401,37.6176758 7.25883789,37.4855143 7.13139648,37.2211914 C7.00395508,36.9568685 6.94023438,36.5245117 6.94023438,35.9241211 C6.94023438,35.3256185 7.00395508,34.8946777 7.13139648,34.6312988 C7.25883789,34.3679199 7.4594401,34.2362305 7.73320313,34.2362305 C8.01074219,34.2362305 8.21464844,34.3688639 8.34492188,34.6341309 C8.47519531,34.8993978 8.54033203,35.3293945 8.54033203,35.9241211 C8.54033203,36.5226237 8.47519531,36.9545085 8.34492188,37.2197754 C8.21464844,37.4850423 8.01074219,37.6176758 7.73320313,37.6176758 Z M11.3937695,38.0566406 C12.2792513,38.0566406 12.7219922,37.3458008 12.7219922,35.9241211 C12.7219922,35.2349935 12.610127,34.7077637 12.3863965,34.3424316 C12.162666,33.9770996 11.8317904,33.7944336 11.3937695,33.7944336 C10.5158398,33.7944336 10.076875,34.5043294 10.076875,35.9241211 C10.076875,36.6151367 10.1882682,37.1433105 10.4110547,37.5086426 C10.6338411,37.8739746 10.9614128,38.0566406 11.3937695,38.0566406 Z M11.3937695,37.6176758 C11.1200065,37.6176758 10.9194043,37.4855143 10.7919629,37.2211914 C10.6645215,36.9568685 10.6008008,36.5245117 10.6008008,35.9241211 C10.6008008,35.3256185 10.6645215,34.8946777 10.7919629,34.6312988 C10.9194043,34.3679199 11.1200065,34.2362305 11.3937695,34.2362305 C11.6713086,34.2362305 11.8752148,34.3688639 12.0054883,34.6341309 C12.1357617,34.8993978 12.2008984,35.3293945 12.2008984,35.9241211 C12.2008984,36.5226237 12.1357617,36.9545085 12.0054883,37.2197754 C11.8752148,37.4850423 11.6713086,37.6176758 11.3937695,37.6176758 Z M15.0543359,38.0566406 C15.9398177,38.0566406 16.3825586,37.3458008 16.3825586,35.9241211 C16.3825586,35.2349935 16.2706934,34.7077637 16.0469629,34.3424316 C15.8232324,33.9770996 15.4923568,33.7944336 15.0543359,33.7944336 C14.1764062,33.7944336 13.7374414,34.5043294 13.7374414,35.9241211 C13.7374414,36.6151367 13.8488346,37.1433105 14.0716211,37.5086426 C14.2944076,37.8739746 14.6219792,38.0566406 15.0543359,38.0566406 Z M15.0543359,37.6176758 C14.7805729,37.6176758 14.5799707,37.4855143 14.4525293,37.2211914 C14.3250879,36.9568685 14.2613672,36.5245117 14.2613672,35.9241211 C14.2613672,35.3256185 14.3250879,34.8946777 14.4525293,34.6312988 C14.5799707,34.3679199 14.7805729,34.2362305 15.0543359,34.2362305 C15.331875,34.2362305 15.5357812,34.3688639 15.6660547,34.6341309 C15.7963281,34.8993978 15.8614648,35.3293945 15.8614648,35.9241211 C15.8614648,36.5226237 15.7963281,36.9545085 15.6660547,37.2197754 C15.5357812,37.4850423 15.331875,37.6176758 15.0543359,37.6176758 Z M19.1283789,38 L19.1283789,33.8595703 L18.7035742,33.8595703 L17.6189063,34.7063477 L17.8936133,35.0546875 L18.3099219,34.7120117 C18.4647396,34.5798503 18.5789648,34.4731771 18.6525977,34.3919922 C18.6374935,34.8432292 18.6299414,35.1840169 18.6299414,35.4143555 L18.6299414,35.4143555 L18.6299414,38 L19.1283789,38 Z M22.3754687,38.0566406 C23.2609505,38.0566406 23.7036914,37.3458008 23.7036914,35.9241211 C23.7036914,35.2349935 23.5918262,34.7077637 23.3680957,34.3424316 C23.1443652,33.9770996 22.8134896,33.7944336 22.3754687,33.7944336 C21.4975391,33.7944336 21.0585742,34.5043294 21.0585742,35.9241211 C21.0585742,36.6151367 21.1699674,37.1433105 21.3927539,37.5086426 C21.6155404,37.8739746 21.943112,38.0566406 22.3754687,38.0566406 Z M22.3754687,37.6176758 C22.1017057,37.6176758 21.9011035,37.4855143 21.7736621,37.2211914 C21.6462207,36.9568685 21.5825,36.5245117 21.5825,35.9241211 C21.5825,35.3256185 21.6462207,34.8946777 21.7736621,34.6312988 C21.9011035,34.3679199 22.1017057,34.2362305 22.3754687,34.2362305 C22.6530078,34.2362305 22.8569141,34.3688639 22.9871875,34.6341309 C23.1174609,34.8993978 23.1825977,35.3293945 23.1825977,35.9241211 C23.1825977,36.5226237 23.1174609,36.9545085 22.9871875,37.2197754 C22.8569141,37.4850423 22.6530078,37.6176758 22.3754687,37.6176758 Z M26.0360352,38.0566406 C26.9215169,38.0566406 27.3642578,37.3458008 27.3642578,35.9241211 C27.3642578,35.2349935 27.2523926,34.7077637 27.0286621,34.3424316 C26.8049316,33.9770996 26.474056,33.7944336 26.0360352,33.7944336 C25.1581055,33.7944336 24.7191406,34.5043294 24.7191406,35.9241211 C24.7191406,36.6151367 24.8305339,37.1433105 25.0533203,37.5086426 C25.2761068,37.8739746 25.6036784,38.0566406 26.0360352,38.0566406 Z M26.0360352,37.6176758 C25.7622721,37.6176758 25.5616699,37.4855143 25.4342285,37.2211914 C25.3067871,36.9568685 25.2430664,36.5245117 25.2430664,35.9241211 C25.2430664,35.3256185 25.3067871,34.8946777 25.4342285,34.6312988 C25.5616699,34.3679199 25.7622721,34.2362305 26.0360352,34.2362305 C26.3135742,34.2362305 26.5174805,34.3688639 26.6477539,34.6341309 C26.7780273,34.8993978 26.8431641,35.3293945 26.8431641,35.9241211 C26.8431641,36.5226237 26.7780273,36.9545085 26.6477539,37.2197754 C26.5174805,37.4850423 26.3135742,37.6176758 26.0360352,37.6176758 Z M30.1100781,38 L30.1100781,33.8595703 L29.6852734,33.8595703 L28.6006055,34.7063477 L28.8753125,35.0546875 L29.2916211,34.7120117 C29.4464388,34.5798503 29.5606641,34.4731771 29.6342969,34.3919922 C29.6191927,34.8432292 29.6116406,35.1840169 29.6116406,35.4143555 L29.6116406,35.4143555 L29.6116406,38 L30.1100781,38 Z M33.357168,38.0566406 C34.2426497,38.0566406 34.6853906,37.3458008 34.6853906,35.9241211 C34.6853906,35.2349935 34.5735254,34.7077637 34.3497949,34.3424316 C34.1260645,33.9770996 33.7951888,33.7944336 33.357168,33.7944336 C32.4792383,33.7944336 32.0402734,34.5043294 32.0402734,35.9241211 C32.0402734,36.6151367 32.1516667,37.1433105 32.3744531,37.5086426 C32.5972396,37.8739746 32.9248112,38.0566406 33.357168,38.0566406 Z M33.357168,37.6176758 C33.0834049,37.6176758 32.8828027,37.4855143 32.7553613,37.2211914 C32.6279199,36.9568685 32.5641992,36.5245117 32.5641992,35.9241211 C32.5641992,35.3256185 32.6279199,34.8946777 32.7553613,34.6312988 C32.8828027,34.3679199 33.0834049,34.2362305 33.357168,34.2362305 C33.634707,34.2362305 33.8386133,34.3688639 33.9688867,34.6341309 C34.0991602,34.8993978 34.1642969,35.3293945 34.1642969,35.9241211 C34.1642969,36.5226237 34.0991602,36.9545085 33.9688867,37.2197754 C33.8386133,37.4850423 33.634707,37.6176758 33.357168,37.6176758 Z M37.4312109,38 L37.4312109,33.8595703 L37.0064062,33.8595703 L35.9217383,34.7063477 L36.1964453,35.0546875 L36.6127539,34.7120117 C36.7675716,34.5798503 36.8817969,34.4731771 36.9554297,34.3919922 C36.9403255,34.8432292 36.9327734,35.1840169 36.9327734,35.4143555 L36.9327734,35.4143555 L36.9327734,38 L37.4312109,38 Z M40.6783008,38.0566406 C41.5637826,38.0566406 42.0065234,37.3458008 42.0065234,35.9241211 C42.0065234,35.2349935 41.8946582,34.7077637 41.6709277,34.3424316 C41.4471973,33.9770996 41.1163216,33.7944336 40.6783008,33.7944336 C39.8003711,33.7944336 39.3614062,34.5043294 39.3614062,35.9241211 C39.3614062,36.6151367 39.4727995,37.1433105 39.6955859,37.5086426 C39.9183724,37.8739746 40.245944,38.0566406 40.6783008,38.0566406 Z M40.6783008,37.6176758 C40.4045378,37.6176758 40.2039355,37.4855143 40.0764941,37.2211914 C39.9490527,36.9568685 39.885332,36.5245117 39.885332,35.9241211 C39.885332,35.3256185 39.9490527,34.8946777 40.0764941,34.6312988 C40.2039355,34.3679199 40.4045378,34.2362305 40.6783008,34.2362305 C40.9558398,34.2362305 41.1597461,34.3688639 41.2900195,34.6341309 C41.420293,34.8993978 41.4854297,35.3293945 41.4854297,35.9241211 C41.4854297,36.5226237 41.420293,36.9545085 41.2900195,37.2197754 C41.1597461,37.4850423 40.9558398,37.6176758 40.6783008,37.6176758 Z M44.3388672,38.0566406 C45.224349,38.0566406 45.6670898,37.3458008 45.6670898,35.9241211 C45.6670898,35.2349935 45.5552246,34.7077637 45.3314941,34.3424316 C45.1077637,33.9770996 44.776888,33.7944336 44.3388672,33.7944336 C43.4609375,33.7944336 43.0219727,34.5043294 43.0219727,35.9241211 C43.0219727,36.6151367 43.1333659,37.1433105 43.3561523,37.5086426 C43.5789388,37.8739746 43.9065104,38.0566406 44.3388672,38.0566406 Z M44.3388672,37.6176758 C44.0651042,37.6176758 43.864502,37.4855143 43.7370605,37.2211914 C43.6096191,36.9568685 43.5458984,36.5245117 43.5458984,35.9241211 C43.5458984,35.3256185 43.6096191,34.8946777 43.7370605,34.6312988 C43.864502,34.3679199 44.0651042,34.2362305 44.3388672,34.2362305 C44.6164062,34.2362305 44.8203125,34.3688639 44.9505859,34.6341309 C45.0808594,34.8993978 45.1459961,35.3293945 45.1459961,35.9241211 C45.1459961,36.5226237 45.0808594,36.9545085 44.9505859,37.2197754 C44.8203125,37.4850423 44.6164062,37.6176758 44.3388672,37.6176758 Z M48.4129102,38 L48.4129102,33.8595703 L47.9881055,33.8595703 L46.9034375,34.7063477 L47.1781445,35.0546875 L47.5944531,34.7120117 C47.7492708,34.5798503 47.8634961,34.4731771 47.9371289,34.3919922 C47.9220247,34.8432292 47.9144727,35.1840169 47.9144727,35.4143555 L47.9144727,35.4143555 L47.9144727,38 L48.4129102,38 Z M52.0734766,38 L52.0734766,33.8595703 L51.6486719,33.8595703 L50.5640039,34.7063477 L50.8387109,35.0546875 L51.2550195,34.7120117 C51.4098372,34.5798503 51.5240625,34.4731771 51.5976953,34.3919922 C51.5825911,34.8432292 51.5750391,35.1840169 51.5750391,35.4143555 L51.5750391,38 L52.0734766,38 Z M55.734043,38 L55.734043,33.8595703 L55.3092383,33.8595703 L54.2245703,34.7063477 L54.4992773,35.0546875 L54.9155859,34.7120117 C55.0704036,34.5798503 55.1846289,34.4731771 55.2582617,34.3919922 C55.2431576,34.8432292 55.2356055,35.1840169 55.2356055,35.4143555 L55.2356055,35.4143555 L55.2356055,38 L55.734043,38 Z M59.3946094,38 L59.3946094,33.8595703 L58.9698047,33.8595703 L57.8851367,34.7063477 L58.1598437,35.0546875 L58.5761523,34.7120117 C58.7309701,34.5798503 58.8451953,34.4731771 58.9188281,34.3919922 C58.903724,34.8432292 58.8961719,35.1840169 58.8961719,35.4143555 L58.8961719,38 L59.3946094,38 Z M62.6416992,38.0566406 C63.527181,38.0566406 63.9699219,37.3458008 63.9699219,35.9241211 C63.9699219,35.2349935 63.8580566,34.7077637 63.6343262,34.3424316 C63.4105957,33.9770996 63.0797201,33.7944336 62.6416992,33.7944336 C61.7637695,33.7944336 61.3248047,34.5043294 61.3248047,35.9241211 C61.3248047,36.6151367 61.4361979,37.1433105 61.6589844,37.5086426 C61.8817708,37.8739746 62.2093424,38.0566406 62.6416992,38.0566406 Z M62.6416992,37.6176758 C62.3679362,37.6176758 62.167334,37.4855143 62.0398926,37.2211914 C61.9124512,36.9568685 61.8487305,36.5245117 61.8487305,35.9241211 C61.8487305,35.3256185 61.9124512,34.8946777 62.0398926,34.6312988 C62.167334,34.3679199 62.3679362,34.2362305 62.6416992,34.2362305 C62.9192383,34.2362305 63.1231445,34.3688639 63.253418,34.6341309 C63.3836914,34.8993978 63.4488281,35.3293945 63.4488281,35.9241211 C63.4488281,36.5226237 63.3836914,36.9545085 63.253418,37.2197754 C63.1231445,37.4850423 62.9192383,37.6176758 62.6416992,37.6176758 Z M8.14667969,43.6 L8.14667969,39.4595703 L7.721875,39.4595703 L6.63720703,40.3063477 L6.91191406,40.6546875 L7.32822266,40.3120117 C7.48304036,40.1798503 7.59726562,40.0731771 7.67089844,39.9919922 C7.65579427,40.4432292 7.64824219,40.7840169 7.64824219,41.0143555 L7.64824219,43.6 L8.14667969,43.6 Z M11.3937695,43.6566406 C12.2792513,43.6566406 12.7219922,42.9458008 12.7219922,41.5241211 C12.7219922,40.8349935 12.610127,40.3077637 12.3863965,39.9424316 C12.162666,39.5770996 11.8317904,39.3944336 11.3937695,39.3944336 C10.5158398,39.3944336 10.076875,40.1043294 10.076875,41.5241211 C10.076875,42.2151367 10.1882682,42.7433105 10.4110547,43.1086426 C10.6338411,43.4739746 10.9614128,43.6566406 11.3937695,43.6566406 Z M11.3937695,43.2176758 C11.1200065,43.2176758 10.9194043,43.0855143 10.7919629,42.8211914 C10.6645215,42.5568685 10.6008008,42.1245117 10.6008008,41.5241211 C10.6008008,40.9256185 10.6645215,40.4946777 10.7919629,40.2312988 C10.9194043,39.9679199 11.1200065,39.8362305 11.3937695,39.8362305 C11.6713086,39.8362305 11.8752148,39.9688639 12.0054883,40.2341309 C12.1357617,40.4993978 12.2008984,40.9293945 12.2008984,41.5241211 C12.2008984,42.1226237 12.1357617,42.5545085 12.0054883,42.8197754 C11.8752148,43.0850423 11.6713086,43.2176758 11.3937695,43.2176758 Z M15.0543359,43.6566406 C15.9398177,43.6566406 16.3825586,42.9458008 16.3825586,41.5241211 C16.3825586,40.8349935 16.2706934,40.3077637 16.0469629,39.9424316 C15.8232324,39.5770996 15.4923568,39.3944336 15.0543359,39.3944336 C14.1764062,39.3944336 13.7374414,40.1043294 13.7374414,41.5241211 C13.7374414,42.2151367 13.8488346,42.7433105 14.0716211,43.1086426 C14.2944076,43.4739746 14.6219792,43.6566406 15.0543359,43.6566406 Z M15.0543359,43.2176758 C14.7805729,43.2176758 14.5799707,43.0855143 14.4525293,42.8211914 C14.3250879,42.5568685 14.2613672,42.1245117 14.2613672,41.5241211 C14.2613672,40.9256185 14.3250879,40.4946777 14.4525293,40.2312988 C14.5799707,39.9679199 14.7805729,39.8362305 15.0543359,39.8362305 C15.331875,39.8362305 15.5357812,39.9688639 15.6660547,40.2341309 C15.7963281,40.4993978 15.8614648,40.9293945 15.8614648,41.5241211 C15.8614648,42.1226237 15.7963281,42.5545085 15.6660547,42.8197754 C15.5357812,43.0850423 15.331875,43.2176758 15.0543359,43.2176758 Z M19.1283789,43.6 L19.1283789,39.4595703 L18.7035742,39.4595703 L17.6189063,40.3063477 L17.8936133,40.6546875 L18.3099219,40.3120117 C18.4647396,40.1798503 18.5789648,40.0731771 18.6525977,39.9919922 C18.6374935,40.4432292 18.6299414,40.7840169 18.6299414,41.0143555 L18.6299414,41.0143555 L18.6299414,43.6 L19.1283789,43.6 Z M22.7889453,43.6 L22.7889453,39.4595703 L22.3641406,39.4595703 L21.2794727,40.3063477 L21.5541797,40.6546875 L21.9704883,40.3120117 C22.125306,40.1798503 22.2395313,40.0731771 22.3131641,39.9919922 C22.2980599,40.4432292 22.2905078,40.7840169 22.2905078,41.0143555 L22.2905078,41.0143555 L22.2905078,43.6 L22.7889453,43.6 Z M26.0360352,43.6566406 C26.9215169,43.6566406 27.3642578,42.9458008 27.3642578,41.5241211 C27.3642578,40.8349935 27.2523926,40.3077637 27.0286621,39.9424316 C26.8049316,39.5770996 26.474056,39.3944336 26.0360352,39.3944336 C25.1581055,39.3944336 24.7191406,40.1043294 24.7191406,41.5241211 C24.7191406,42.2151367 24.8305339,42.7433105 25.0533203,43.1086426 C25.2761068,43.4739746 25.6036784,43.6566406 26.0360352,43.6566406 Z M26.0360352,43.2176758 C25.7622721,43.2176758 25.5616699,43.0855143 25.4342285,42.8211914 C25.3067871,42.5568685 25.2430664,42.1245117 25.2430664,41.5241211 C25.2430664,40.9256185 25.3067871,40.4946777 25.4342285,40.2312988 C25.5616699,39.9679199 25.7622721,39.8362305 26.0360352,39.8362305 C26.3135742,39.8362305 26.5174805,39.9688639 26.6477539,40.2341309 C26.7780273,40.4993978 26.8431641,40.9293945 26.8431641,41.5241211 C26.8431641,42.1226237 26.7780273,42.5545085 26.6477539,42.8197754 C26.5174805,43.0850423 26.3135742,43.2176758 26.0360352,43.2176758 Z M29.6966016,43.6566406 C30.5820833,43.6566406 31.0248242,42.9458008 31.0248242,41.5241211 C31.0248242,40.8349935 30.912959,40.3077637 30.6892285,39.9424316 C30.465498,39.5770996 30.1346224,39.3944336 29.6966016,39.3944336 C28.8186719,39.3944336 28.379707,40.1043294 28.379707,41.5241211 C28.379707,42.2151367 28.4911003,42.7433105 28.7138867,43.1086426 C28.9366732,43.4739746 29.2642448,43.6566406 29.6966016,43.6566406 Z M29.6966016,43.2176758 C29.4228385,43.2176758 29.2222363,43.0855143 29.0947949,42.8211914 C28.9673535,42.5568685 28.9036328,42.1245117 28.9036328,41.5241211 C28.9036328,40.9256185 28.9673535,40.4946777 29.0947949,40.2312988 C29.2222363,39.9679199 29.4228385,39.8362305 29.6966016,39.8362305 C29.9741406,39.8362305 30.1780469,39.9688639 30.3083203,40.2341309 C30.4385937,40.4993978 30.5037305,40.9293945 30.5037305,41.5241211 C30.5037305,42.1226237 30.4385937,42.5545085 30.3083203,42.8197754 C30.1780469,43.0850423 29.9741406,43.2176758 29.6966016,43.2176758 Z M33.357168,43.6566406 C34.2426497,43.6566406 34.6853906,42.9458008 34.6853906,41.5241211 C34.6853906,40.8349935 34.5735254,40.3077637 34.3497949,39.9424316 C34.1260645,39.5770996 33.7951888,39.3944336 33.357168,39.3944336 C32.4792383,39.3944336 32.0402734,40.1043294 32.0402734,41.5241211 C32.0402734,42.2151367 32.1516667,42.7433105 32.3744531,43.1086426 C32.5972396,43.4739746 32.9248112,43.6566406 33.357168,43.6566406 Z M33.357168,43.2176758 C33.0834049,43.2176758 32.8828027,43.0855143 32.7553613,42.8211914 C32.6279199,42.5568685 32.5641992,42.1245117 32.5641992,41.5241211 C32.5641992,40.9256185 32.6279199,40.4946777 32.7553613,40.2312988 C32.8828027,39.9679199 33.0834049,39.8362305 33.357168,39.8362305 C33.634707,39.8362305 33.8386133,39.9688639 33.9688867,40.2341309 C34.0991602,40.4993978 34.1642969,40.9293945 34.1642969,41.5241211 C34.1642969,42.1226237 34.0991602,42.5545085 33.9688867,42.8197754 C33.8386133,43.0850423 33.634707,43.2176758 33.357168,43.2176758 Z M37.4312109,43.6 L37.4312109,39.4595703 L37.0064062,39.4595703 L35.9217383,40.3063477 L36.1964453,40.6546875 L36.6127539,40.3120117 C36.7675716,40.1798503 36.8817969,40.0731771 36.9554297,39.9919922 C36.9403255,40.4432292 36.9327734,40.7840169 36.9327734,41.0143555 L36.9327734,41.0143555 L36.9327734,43.6 L37.4312109,43.6 Z M41.0917773,43.6 L41.0917773,39.4595703 L40.6669727,39.4595703 L39.5823047,40.3063477 L39.8570117,40.6546875 L40.2733203,40.3120117 C40.428138,40.1798503 40.5423633,40.0731771 40.6159961,39.9919922 C40.6008919,40.4432292 40.5933398,40.7840169 40.5933398,41.0143555 L40.5933398,43.6 L41.0917773,43.6 Z M44.7523437,43.6 L44.7523437,39.4595703 L44.3275391,39.4595703 L43.2428711,40.3063477 L43.5175781,40.6546875 L43.9338867,40.3120117 C44.0887044,40.1798503 44.2029297,40.0731771 44.2765625,39.9919922 C44.2614583,40.4432292 44.2539062,40.7840169 44.2539062,41.0143555 L44.2539062,41.0143555 L44.2539062,43.6 L44.7523437,43.6 Z M48.4129102,43.6 L48.4129102,39.4595703 L47.9881055,39.4595703 L46.9034375,40.3063477 L47.1781445,40.6546875 L47.5944531,40.3120117 C47.7492708,40.1798503 47.8634961,40.0731771 47.9371289,39.9919922 C47.9220247,40.4432292 47.9144727,40.7840169 47.9144727,41.0143555 L47.9144727,41.0143555 L47.9144727,43.6 L48.4129102,43.6 Z M51.66,43.6566406 C52.5454818,43.6566406 52.9882227,42.9458008 52.9882227,41.5241211 C52.9882227,40.8349935 52.8763574,40.3077637 52.652627,39.9424316 C52.4288965,39.5770996 52.0980208,39.3944336 51.66,39.3944336 C50.7820703,39.3944336 50.3431055,40.1043294 50.3431055,41.5241211 C50.3431055,42.2151367 50.4544987,42.7433105 50.6772852,43.1086426 C50.9000716,43.4739746 51.2276432,43.6566406 51.66,43.6566406 Z M51.66,43.2176758 C51.386237,43.2176758 51.1856348,43.0855143 51.0581934,42.8211914 C50.930752,42.5568685 50.8670312,42.1245117 50.8670312,41.5241211 C50.8670312,40.9256185 50.930752,40.4946777 51.0581934,40.2312988 C51.1856348,39.9679199 51.386237,39.8362305 51.66,39.8362305 C51.9375391,39.8362305 52.1414453,39.9688639 52.2717187,40.2341309 C52.4019922,40.4993978 52.4671289,40.9293945 52.4671289,41.5241211 C52.4671289,42.1226237 52.4019922,42.5545085 52.2717187,42.8197754 C52.1414453,43.0850423 51.9375391,43.2176758 51.66,43.2176758 Z M55.734043,43.6 L55.734043,39.4595703 L55.3092383,39.4595703 L54.2245703,40.3063477 L54.4992773,40.6546875 L54.9155859,40.3120117 C55.0704036,40.1798503 55.1846289,40.0731771 55.2582617,39.9919922 C55.2431576,40.4432292 55.2356055,40.7840169 55.2356055,41.0143555 L55.2356055,41.0143555 L55.2356055,43.6 L55.734043,43.6 Z M58.9811328,43.6566406 C59.8666146,43.6566406 60.3093555,42.9458008 60.3093555,41.5241211 C60.3093555,40.8349935 60.1974902,40.3077637 59.9737598,39.9424316 C59.7500293,39.5770996 59.4191536,39.3944336 58.9811328,39.3944336 C58.1032031,39.3944336 57.6642383,40.1043294 57.6642383,41.5241211 C57.6642383,42.2151367 57.7756315,42.7433105 57.998418,43.1086426 C58.2212044,43.4739746 58.548776,43.6566406 58.9811328,43.6566406 Z M58.9811328,43.2176758 C58.7073698,43.2176758 58.5067676,43.0855143 58.3793262,42.8211914 C58.2518848,42.5568685 58.1881641,42.1245117 58.1881641,41.5241211 C58.1881641,40.9256185 58.2518848,40.4946777 58.3793262,40.2312988 C58.5067676,39.9679199 58.7073698,39.8362305 58.9811328,39.8362305 C59.2586719,39.8362305 59.4625781,39.9688639 59.5928516,40.2341309 C59.723125,40.4993978 59.7882617,40.9293945 59.7882617,41.5241211 C59.7882617,42.1226237 59.723125,42.5545085 59.5928516,42.8197754 C59.4625781,43.0850423 59.2586719,43.2176758 58.9811328,43.2176758 Z M63.0551758,43.6 L63.0551758,39.4595703 L62.6303711,39.4595703 L61.5457031,40.3063477 L61.8204102,40.6546875 L62.2367187,40.3120117 C62.3915365,40.1798503 62.5057617,40.0731771 62.5793945,39.9919922 C62.5642904,40.4432292 62.5567383,40.7840169 62.5567383,41.0143555 L62.5567383,41.0143555 L62.5567383,43.6 L63.0551758,43.6 Z M7.73320313,49.2566406 C8.6186849,49.2566406 9.06142578,48.5458008 9.06142578,47.1241211 C9.06142578,46.4349935 8.94956055,45.9077637 8.72583008,45.5424316 C8.50209961,45.1770996 8.17122396,44.9944336 7.73320313,44.9944336 C6.85527344,44.9944336 6.41630859,45.7043294 6.41630859,47.1241211 C6.41630859,47.8151367 6.52770182,48.3433105 6.75048828,48.7086426 C6.97327474,49.0739746 7.30084635,49.2566406 7.73320313,49.2566406 Z M7.73320313,48.8176758 C7.4594401,48.8176758 7.25883789,48.6855143 7.13139648,48.4211914 C7.00395508,48.1568685 6.94023438,47.7245117 6.94023438,47.1241211 C6.94023438,46.5256185 7.00395508,46.0946777 7.13139648,45.8312988 C7.25883789,45.5679199 7.4594401,45.4362305 7.73320313,45.4362305 C8.01074219,45.4362305 8.21464844,45.5688639 8.34492188,45.8341309 C8.47519531,46.0993978 8.54033203,46.5293945 8.54033203,47.1241211 C8.54033203,47.7226237 8.47519531,48.1545085 8.34492188,48.4197754 C8.21464844,48.6850423 8.01074219,48.8176758 7.73320313,48.8176758 Z M11.3937695,49.2566406 C12.2792513,49.2566406 12.7219922,48.5458008 12.7219922,47.1241211 C12.7219922,46.4349935 12.610127,45.9077637 12.3863965,45.5424316 C12.162666,45.1770996 11.8317904,44.9944336 11.3937695,44.9944336 C10.5158398,44.9944336 10.076875,45.7043294 10.076875,47.1241211 C10.076875,47.8151367 10.1882682,48.3433105 10.4110547,48.7086426 C10.6338411,49.0739746 10.9614128,49.2566406 11.3937695,49.2566406 Z M11.3937695,48.8176758 C11.1200065,48.8176758 10.9194043,48.6855143 10.7919629,48.4211914 C10.6645215,48.1568685 10.6008008,47.7245117 10.6008008,47.1241211 C10.6008008,46.5256185 10.6645215,46.0946777 10.7919629,45.8312988 C10.9194043,45.5679199 11.1200065,45.4362305 11.3937695,45.4362305 C11.6713086,45.4362305 11.8752148,45.5688639 12.0054883,45.8341309 C12.1357617,46.0993978 12.2008984,46.5293945 12.2008984,47.1241211 C12.2008984,47.7226237 12.1357617,48.1545085 12.0054883,48.4197754 C11.8752148,48.6850423 11.6713086,48.8176758 11.3937695,48.8176758 Z M15.0543359,49.2566406 C15.9398177,49.2566406 16.3825586,48.5458008 16.3825586,47.1241211 C16.3825586,46.4349935 16.2706934,45.9077637 16.0469629,45.5424316 C15.8232324,45.1770996 15.4923568,44.9944336 15.0543359,44.9944336 C14.1764062,44.9944336 13.7374414,45.7043294 13.7374414,47.1241211 C13.7374414,47.8151367 13.8488346,48.3433105 14.0716211,48.7086426 C14.2944076,49.0739746 14.6219792,49.2566406 15.0543359,49.2566406 Z M15.0543359,48.8176758 C14.7805729,48.8176758 14.5799707,48.6855143 14.4525293,48.4211914 C14.3250879,48.1568685 14.2613672,47.7245117 14.2613672,47.1241211 C14.2613672,46.5256185 14.3250879,46.0946777 14.4525293,45.8312988 C14.5799707,45.5679199 14.7805729,45.4362305 15.0543359,45.4362305 C15.331875,45.4362305 15.5357812,45.5688639 15.6660547,45.8341309 C15.7963281,46.0993978 15.8614648,46.5293945 15.8614648,47.1241211 C15.8614648,47.7226237 15.7963281,48.1545085 15.6660547,48.4197754 C15.5357812,48.6850423 15.331875,48.8176758 15.0543359,48.8176758 Z M18.7149023,49.2566406 C19.6003841,49.2566406 20.043125,48.5458008 20.043125,47.1241211 C20.043125,46.4349935 19.9312598,45.9077637 19.7075293,45.5424316 C19.4837988,45.1770996 19.1529232,44.9944336 18.7149023,44.9944336 C17.8369727,44.9944336 17.3980078,45.7043294 17.3980078,47.1241211 C17.3980078,47.8151367 17.509401,48.3433105 17.7321875,48.7086426 C17.954974,49.0739746 18.2825456,49.2566406 18.7149023,49.2566406 Z M18.7149023,48.8176758 C18.4411393,48.8176758 18.2405371,48.6855143 18.1130957,48.4211914 C17.9856543,48.1568685 17.9219336,47.7245117 17.9219336,47.1241211 C17.9219336,46.5256185 17.9856543,46.0946777 18.1130957,45.8312988 C18.2405371,45.5679199 18.4411393,45.4362305 18.7149023,45.4362305 C18.9924414,45.4362305 19.1963477,45.5688639 19.3266211,45.8341309 C19.4568945,46.0993978 19.5220312,46.5293945 19.5220312,47.1241211 C19.5220312,47.7226237 19.4568945,48.1545085 19.3266211,48.4197754 C19.1963477,48.6850423 18.9924414,48.8176758 18.7149023,48.8176758 Z M22.7889453,49.2 L22.7889453,45.0595703 L22.3641406,45.0595703 L21.2794727,45.9063477 L21.5541797,46.2546875 L21.9704883,45.9120117 C22.125306,45.7798503 22.2395313,45.6731771 22.3131641,45.5919922 C22.2980599,46.0432292 22.2905078,46.3840169 22.2905078,46.6143555 L22.2905078,46.6143555 L22.2905078,49.2 L22.7889453,49.2 Z M26.4495117,49.2 L26.4495117,45.0595703 L26.024707,45.0595703 L24.9400391,45.9063477 L25.2147461,46.2546875 L25.6310547,45.9120117 C25.7858724,45.7798503 25.9000977,45.6731771 25.9737305,45.5919922 C25.9586263,46.0432292 25.9510742,46.3840169 25.9510742,46.6143555 L25.9510742,49.2 L26.4495117,49.2 Z M30.1100781,49.2 L30.1100781,45.0595703 L29.6852734,45.0595703 L28.6006055,45.9063477 L28.8753125,46.2546875 L29.2916211,45.9120117 C29.4464388,45.7798503 29.5606641,45.6731771 29.6342969,45.5919922 C29.6191927,46.0432292 29.6116406,46.3840169 29.6116406,46.6143555 L29.6116406,46.6143555 L29.6116406,49.2 L30.1100781,49.2 Z M33.7706445,49.2 L33.7706445,45.0595703 L33.3458398,45.0595703 L32.2611719,45.9063477 L32.5358789,46.2546875 L32.9521875,45.9120117 C33.1070052,45.7798503 33.2212305,45.6731771 33.2948633,45.5919922 C33.2797591,46.0432292 33.272207,46.3840169 33.272207,46.6143555 L33.272207,49.2 L33.7706445,49.2 Z M37.0177344,49.2566406 C37.9032161,49.2566406 38.345957,48.5458008 38.345957,47.1241211 C38.345957,46.4349935 38.2340918,45.9077637 38.0103613,45.5424316 C37.7866309,45.1770996 37.4557552,44.9944336 37.0177344,44.9944336 C36.1398047,44.9944336 35.7008398,45.7043294 35.7008398,47.1241211 C35.7008398,47.8151367 35.8122331,48.3433105 36.0350195,48.7086426 C36.257806,49.0739746 36.5853776,49.2566406 37.0177344,49.2566406 Z M37.0177344,48.8176758 C36.7439714,48.8176758 36.5433691,48.6855143 36.4159277,48.4211914 C36.2884863,48.1568685 36.2247656,47.7245117 36.2247656,47.1241211 C36.2247656,46.5256185 36.2884863,46.0946777 36.4159277,45.8312988 C36.5433691,45.5679199 36.7439714,45.4362305 37.0177344,45.4362305 C37.2952734,45.4362305 37.4991797,45.5688639 37.6294531,45.8341309 C37.7597266,46.0993978 37.8248633,46.5293945 37.8248633,47.1241211 C37.8248633,47.7226237 37.7597266,48.1545085 37.6294531,48.4197754 C37.4991797,48.6850423 37.2952734,48.8176758 37.0177344,48.8176758 Z M41.0917773,49.2 L41.0917773,45.0595703 L40.6669727,45.0595703 L39.5823047,45.9063477 L39.8570117,46.2546875 L40.2733203,45.9120117 C40.428138,45.7798503 40.5423633,45.6731771 40.6159961,45.5919922 C40.6008919,46.0432292 40.5933398,46.3840169 40.5933398,46.6143555 L40.5933398,49.2 L41.0917773,49.2 Z M44.3388672,49.2566406 C45.224349,49.2566406 45.6670898,48.5458008 45.6670898,47.1241211 C45.6670898,46.4349935 45.5552246,45.9077637 45.3314941,45.5424316 C45.1077637,45.1770996 44.776888,44.9944336 44.3388672,44.9944336 C43.4609375,44.9944336 43.0219727,45.7043294 43.0219727,47.1241211 C43.0219727,47.8151367 43.1333659,48.3433105 43.3561523,48.7086426 C43.5789388,49.0739746 43.9065104,49.2566406 44.3388672,49.2566406 Z M44.3388672,48.8176758 C44.0651042,48.8176758 43.864502,48.6855143 43.7370605,48.4211914 C43.6096191,48.1568685 43.5458984,47.7245117 43.5458984,47.1241211 C43.5458984,46.5256185 43.6096191,46.0946777 43.7370605,45.8312988 C43.864502,45.5679199 44.0651042,45.4362305 44.3388672,45.4362305 C44.6164062,45.4362305 44.8203125,45.5688639 44.9505859,45.8341309 C45.0808594,46.0993978 45.1459961,46.5293945 45.1459961,47.1241211 C45.1459961,47.7226237 45.0808594,48.1545085 44.9505859,48.4197754 C44.8203125,48.6850423 44.6164062,48.8176758 44.3388672,48.8176758 Z M48.4129102,49.2 L48.4129102,45.0595703 L47.9881055,45.0595703 L46.9034375,45.9063477 L47.1781445,46.2546875 L47.5944531,45.9120117 C47.7492708,45.7798503 47.8634961,45.6731771 47.9371289,45.5919922 C47.9220247,46.0432292 47.9144727,46.3840169 47.9144727,46.6143555 L47.9144727,46.6143555 L47.9144727,49.2 L48.4129102,49.2 Z M52.0734766,49.2 L52.0734766,45.0595703 L51.6486719,45.0595703 L50.5640039,45.9063477 L50.8387109,46.2546875 L51.2550195,45.9120117 C51.4098372,45.7798503 51.5240625,45.6731771 51.5976953,45.5919922 C51.5825911,46.0432292 51.5750391,46.3840169 51.5750391,46.6143555 L51.5750391,49.2 L52.0734766,49.2 Z M55.3205664,49.2566406 C56.2060482,49.2566406 56.6487891,48.5458008 56.6487891,47.1241211 C56.6487891,46.4349935 56.5369238,45.9077637 56.3131934,45.5424316 C56.0894629,45.1770996 55.7585872,44.9944336 55.3205664,44.9944336 C54.4426367,44.9944336 54.0036719,45.7043294 54.0036719,47.1241211 C54.0036719,47.8151367 54.1150651,48.3433105 54.3378516,48.7086426 C54.560638,49.0739746 54.8882096,49.2566406 55.3205664,49.2566406 Z M55.3205664,48.8176758 C55.0468034,48.8176758 54.8462012,48.6855143 54.7187598,48.4211914 C54.5913184,48.1568685 54.5275977,47.7245117 54.5275977,47.1241211 C54.5275977,46.5256185 54.5913184,46.0946777 54.7187598,45.8312988 C54.8462012,45.5679199 55.0468034,45.4362305 55.3205664,45.4362305 C55.5981055,45.4362305 55.8020117,45.5688639 55.9322852,45.8341309 C56.0625586,46.0993978 56.1276953,46.5293945 56.1276953,47.1241211 C56.1276953,47.7226237 56.0625586,48.1545085 55.9322852,48.4197754 C55.8020117,48.6850423 55.5981055,48.8176758 55.3205664,48.8176758 Z M59.3946094,49.2 L59.3946094,45.0595703 L58.9698047,45.0595703 L57.8851367,45.9063477 L58.1598437,46.2546875 L58.5761523,45.9120117 C58.7309701,45.7798503 58.8451953,45.6731771 58.9188281,45.5919922 C58.903724,46.0432292 58.8961719,46.3840169 58.8961719,46.6143555 L58.8961719,49.2 L59.3946094,49.2 Z M62.6416992,49.2566406 C63.527181,49.2566406 63.9699219,48.5458008 63.9699219,47.1241211 C63.9699219,46.4349935 63.8580566,45.9077637 63.6343262,45.5424316 C63.4105957,45.1770996 63.0797201,44.9944336 62.6416992,44.9944336 C61.7637695,44.9944336 61.3248047,45.7043294 61.3248047,47.1241211 C61.3248047,47.8151367 61.4361979,48.3433105 61.6589844,48.7086426 C61.8817708,49.0739746 62.2093424,49.2566406 62.6416992,49.2566406 Z M62.6416992,48.8176758 C62.3679362,48.8176758 62.167334,48.6855143 62.0398926,48.4211914 C61.9124512,48.1568685 61.8487305,47.7245117 61.8487305,47.1241211 C61.8487305,46.5256185 61.9124512,46.0946777 62.0398926,45.8312988 C62.167334,45.5679199 62.3679362,45.4362305 62.6416992,45.4362305 C62.9192383,45.4362305 63.1231445,45.5688639 63.253418,45.8341309 C63.3836914,46.0993978 63.4488281,46.5293945 63.4488281,47.1241211 C63.4488281,47.7226237 63.3836914,48.1545085 63.253418,48.4197754 C63.1231445,48.6850423 62.9192383,48.8176758 62.6416992,48.8176758 Z" id="01011110110001000110011000110100011010101001100011101001100111101010101000101010000100101001111010011000111101010000111101011010" fill="#8A95B3" opacity="0.200000003"></path>
                    <rect id="Rectangle" fill="#92A0B5" x="43" y="6" width="21" height="16"></rect>
                    <rect id="Rectangle" fill="#92A0B5" x="18" y="57" width="33" height="4"></rect>
                    <polygon id="Path" fill="#93A2B6" points="106 25 106 35 115 30"></polygon>
                    <circle id="Oval" fill="#92A0B5" cx="79" cy="30" r="1"></circle>
                    <circle id="Oval" fill="#92A0B5" cx="83" cy="30" r="1"></circle>
                    <circle id="Oval" fill="#92A0B5" cx="87" cy="30" r="1"></circle>
                    <circle id="Oval" fill="#92A0B5" cx="91" cy="30" r="1"></circle>
                    <circle id="Oval" fill="#92A0B5" cx="95" cy="30" r="1"></circle>
                    <circle id="Oval" fill="#92A0B5" cx="99" cy="30" r="1"></circle>
                    <circle id="Oval" fill="#92A0B5" cx="103" cy="30" r="1"></circle>
                    <polygon id="Path" fill="#92A0B5" points="145.415663 20.2941176 145.060241 21 128 21 128 9 187 9 187 21 169.584337 21 169.228916 20.2941176 186.289157 20.2941176 186.289157 9.70588235 128.710843 9.70588235 128.710843 20.2941176"></polygon>
                    <polygon id="Path" fill="#92A0B5" points="169.584337 37.7058824 169.939759 37 187 37 187 49 128 49 128 37 145.415663 37 145.771084 37.7058824 128.710843 37.7058824 128.710843 48.2941176 186.289157 48.2941176 186.289157 37.7058824"></polygon>
                    <polygon id="Path" fill="#92A0B5" points="145 23 144.644444 23.7058824 129.711111 23.7058824 129.711111 34.2941176 144.644444 34.2941176 145 35 129 35 129 23"></polygon>
                    <path d="M170,23 C170,23 170,23 170,23 C170.073913,23.1411765 170.369565,23.7058824 170.369565,23.7058824 L186.26087,23.7058824 L186.26087,34.2941176 L170.73913,34.2941176 L170.369565,35 L187,35 L187,23" id="Path" fill="#92A0B5"></path>
                    <path d="M134.5,18 C135.892857,18 137,16.8928571 137,15.5 C137,14.1071429 135.892857,13 134.5,13 C133.107143,13 132,14.1071429 132,15.5 C132,16.8571429 133.107143,18 134.5,18 Z M134.5,13.7142857 C135.5,13.7142857 136.285714,14.5 136.285714,15.5 C136.285714,16.5 135.5,17.2857143 134.5,17.2857143 C133.5,17.2857143 132.714286,16.5 132.714286,15.5 C132.714286,14.5 133.5,13.7142857 134.5,13.7142857 Z" id="Shape" fill="#92A0B5"></path>
                    <path d="M134.5,26 C133.107143,26 132,27.1071429 132,28.5 C132,29.8928571 133.107143,31 134.5,31 C135.892857,31 137,29.8928571 137,28.5 C137,27.1071429 135.892857,26 134.5,26 Z M134.5,30.2857143 C133.5,30.2857143 132.714286,29.5 132.714286,28.5 C132.714286,27.5 133.5,26.7142857 134.5,26.7142857 C135.5,26.7142857 136.285714,27.5 136.285714,28.5 C136.285714,29.5 135.5,30.2857143 134.5,30.2857143 Z" id="Shape" fill="#92A0B5"></path>
                    <path d="M134.5,41 C133.107143,41 132,42.1071429 132,43.5 C132,44.8928571 133.107143,46 134.5,46 C135.892857,46 137,44.8928571 137,43.5 C137,42.1071429 135.892857,41 134.5,41 Z M134.5,45.2857143 C133.5,45.2857143 132.714286,44.5 132.714286,43.5 C132.714286,42.5 133.5,41.7142857 134.5,41.7142857 C135.5,41.7142857 136.285714,42.5 136.285714,43.5 C136.285714,44.5 135.5,45.2857143 134.5,45.2857143 Z" id="Shape" fill="#92A0B5"></path>
                    <rect id="Rectangle" stroke="#92A0B5" x="0" y="0" width="70" height="55"></rect>
                    <rect id="Rectangle" stroke="#92A0B5" x="3" y="3" width="64" height="49"></rect>
                </g>
            </g>
        </g>
    </g>
</svg>
