<?xml version="1.0" encoding="UTF-8"?>
<svg width="333px" height="282px" viewBox="0 0 333 282" version="1.1" xmlns="http://www.w3.org/2000/svg" xmlns:xlink="http://www.w3.org/1999/xlink">
    <title>Group</title>
    <defs>
        <filter x="-2.4%" y="-2.8%" width="104.7%" height="105.6%" filterUnits="objectBoundingBox" id="filter-1">
            <feOffset dx="1" dy="1" in="SourceAlpha" result="shadowOffsetOuter1"></feOffset>
            <feGaussianBlur stdDeviation="1" in="shadowOffsetOuter1" result="shadowBlurOuter1"></feGaussianBlur>
            <feColorMatrix values="0 0 0 0 0.541176471   0 0 0 0 0.584313725   0 0 0 0 0.701960784  0 0 0 0.25 0" type="matrix" in="shadowBlurOuter1" result="shadowMatrixOuter1"></feColorMatrix>
            <feMerge>
                <feMergeNode in="shadowMatrixOuter1"></feMergeNode>
                <feMergeNode in="SourceGraphic"></feMergeNode>
            </feMerge>
        </filter>
        <path d="M112.818914,48.4619382 L111.623798,48.4619382 L111.623798,15.8950377 C111.623798,7.11093791 104.453105,0 95.6690049,0 L16.7316186,0 C7.94751884,0 0.776825149,7.11093791 0.776825149,15.8950377 L0.776825149,28.623019 L0,28.623019 L0,38.1839439 L0.776825149,38.1839439 L0.776825149,48.4619382 L0,48.4619382 L0,65.133801 L0.776825149,65.133801 L0.776825149,69.0776825 L0,69.0776825 L0,86.5861263 L0.776825149,86.5861263 L0.776825149,214.104962 C0.776825149,222.889062 7.94751884,230 16.7316186,230 L95.6690049,230 C104.453105,230 111.623798,222.889062 111.623798,214.104962 L111.623798,65.133801 L112.818914,65.133801 L112.818914,48.4619382 Z" id="path-2"></path>
        <filter x="-2.2%" y="-1.1%" width="106.2%" height="103.0%" filterUnits="objectBoundingBox" id="filter-3">
            <feOffset dx="1" dy="1" in="SourceAlpha" result="shadowOffsetOuter1"></feOffset>
            <feGaussianBlur stdDeviation="1" in="shadowOffsetOuter1" result="shadowBlurOuter1"></feGaussianBlur>
            <feColorMatrix values="0 0 0 0 0.541176471   0 0 0 0 0.584313725   0 0 0 0 0.701960784  0 0 0 0.5 0" type="matrix" in="shadowBlurOuter1"></feColorMatrix>
        </filter>
    </defs>
    <g id="Symbols" stroke="none" stroke-width="1" fill="none" fill-rule="evenodd">
        <g id="CTV&amp;Smartphone-Illustration" transform="translate(1.000000, 5.000000)" fill-rule="nonzero">
            <g id="Group" transform="translate(0.000000, 0.000000)">
                <g id="CTV" transform="translate(51.000000, 0.000000)">
                    <g id="BG" filter="url(#filter-1)" fill="#F3F4F6">
                        <path d="M200.271151,220.846154 L200.271151,231.846154 L70.2711514,231.846154 L70.2711514,220.846154 L200.271151,220.846154 Z M271.324675,0 C273.533814,-3.17995656e-14 275.324675,1.790861 275.324675,4 L275.324675,211.769231 C275.324675,213.97837 273.533814,215.769231 271.324675,215.769231 L4,215.769231 C1.790861,215.769231 2.705415e-16,213.97837 0,211.769231 L0,4 C-2.705415e-16,1.790861 1.790861,4.05812251e-16 4,0 L271.324675,0 Z" id="Combined-Shape"></path>
                    </g>
                    <g id="Device" fill="#8A95B3">
                        <path d="M201.09558,220.196154 L69.6211514,220.196154 L69.6211514,232.496154 L201.09558,232.496154 L201.09558,220.196154 Z M199.795,221.496 L199.795,231.196 L70.921,231.196 L70.921,221.496 L199.795,221.496 Z" id="Rectangle"></path>
                        <path d="M271.324675,-0.65 L4,-0.65 C1.43187591,-0.65 -0.65,1.43187591 -0.65,4 L-0.65,211.769231 C-0.65,214.337355 1.43187591,216.419231 4,216.419231 L271.324675,216.419231 C273.892799,216.419231 275.974675,214.337355 275.974675,211.769231 L275.974675,4 C275.974675,1.43187591 273.892799,-0.65 271.324675,-0.65 Z M4,0.65 L271.324675,0.65 C273.174829,0.65 274.674675,2.14984609 274.674675,4 L274.674675,211.769231 C274.674675,213.619385 273.174829,215.119231 271.324675,215.119231 L4,215.119231 C2.14984609,215.119231 0.65,213.619385 0.65,211.769231 L0.65,4 C0.65,2.14984609 2.14984609,0.65 4,0.65 Z" id="Rectangle"></path>
                        <path d="M263.782967,11.35 L11.35,11.35 L11.35,205.342308 L263.782967,205.342308 L263.782967,11.35 Z M262.482,12.65 L262.482,204.042 L12.65,204.042 L12.65,12.65 L262.482,12.65 Z" id="Rectangle"></path>
                    </g>
                </g>
                <g id="Smartphone" transform="translate(0.000000, 44.000000)">
                    <g id="BG">
                        <use fill="black" fill-opacity="1" filter="url(#filter-3)" xlink:href="#path-2"></use>
                        <use fill="#F3F4F6" xlink:href="#path-2"></use>
                    </g>
                    <g id="Device" fill="#8A95B3">
                        <path d="M64.7752663,17.8669784 L47.5656015,17.8669784 C46.7290205,17.8669784 46.0717069,17.2096648 46.0717069,16.3730839 L46.0717069,14.998701 C46.0717069,14.16212 46.7290205,13.5048064 47.5656015,13.5048064 L64.7752663,13.5048064 C65.6118472,13.5048064 66.2691608,14.16212 66.2691608,14.998701 L66.2691608,16.3133281 C66.3289166,17.1499091 65.6118472,17.8669784 64.7752663,17.8669784 Z M47.5656015,14.6999221 C47.3863341,14.6999221 47.2668226,14.8194336 47.2668226,14.998701 L47.2668226,16.3133281 C47.2668226,16.4925955 47.3863341,16.612107 47.5656015,16.612107 L64.7752663,16.612107 C64.9545336,16.612107 65.0740452,16.4925955 65.0740452,16.3133281 L65.0740452,14.998701 C65.0740452,14.8194336 64.9545336,14.6999221 64.7752663,14.6999221 L47.5656015,14.6999221 Z" id="Shape"></path>
                        <path d="M38.6619901,18.6438036 C36.9888283,18.6438036 35.6742011,17.3291764 35.6742011,15.6560145 C35.6742011,13.9828527 36.9888283,12.6682255 38.6619901,12.6682255 C40.335152,12.6682255 41.6497792,13.9828527 41.6497792,15.6560145 C41.6497792,17.3291764 40.335152,18.6438036 38.6619901,18.6438036 Z M38.6619901,13.8633411 C37.6461419,13.8633411 36.8693167,14.6401663 36.8693167,15.6560145 C36.8693167,16.6718628 37.6461419,17.448688 38.6619901,17.448688 C39.6778384,17.448688 40.4546635,16.6718628 40.4546635,15.6560145 C40.4546635,14.6999221 39.6778384,13.8633411 38.6619901,13.8633411 Z" id="Shape"></path>
                        <path d="M55.9911665,225.279293 C50.6131463,225.279293 46.2509743,220.917121 46.2509743,215.539101 C46.2509743,210.161081 50.6131463,205.798909 55.9911665,205.798909 C61.3691868,205.798909 65.7313588,210.161081 65.7313588,215.539101 C65.7313588,220.917121 61.3691868,225.279293 55.9911665,225.279293 Z M55.9911665,206.994024 C51.2704599,206.994024 47.4460899,210.818394 47.4460899,215.539101 C47.4460899,220.259808 51.2704599,224.084178 55.9911665,224.084178 C60.7118732,224.084178 64.5362432,220.259808 64.5362432,215.539101 C64.5362432,210.87815 60.7118732,206.994024 55.9911665,206.994024 Z" id="Shape"></path>
                        <path d="M106.066511,203.826968 L6.39386854,203.826968 L6.39386854,28.623019 L106.066511,28.623019 L106.066511,203.826968 Z M7.52922837,202.631852 L104.811639,202.631852 L104.811639,29.8181346 L7.52922837,29.8181346 L7.52922837,202.631852 Z" id="Shape"></path>
                        <path d="M112.818914,48.4619382 L111.623798,48.4619382 L111.623798,15.8950377 C111.623798,7.11093791 104.453105,0 95.6690049,0 L16.7316186,0 C7.94751884,0 0.776825149,7.11093791 0.776825149,15.8950377 L0.776825149,28.623019 L0,28.623019 L0,38.1839439 L0.776825149,38.1839439 L0.776825149,48.4619382 L0,48.4619382 L0,65.133801 L0.776825149,65.133801 L0.776825149,69.0776825 L0,69.0776825 L0,86.5861263 L0.776825149,86.5861263 L0.776825149,214.104962 C0.776825149,222.889062 7.94751884,230 16.7316186,230 L95.6690049,230 C104.453105,230 111.623798,222.889062 111.623798,214.104962 L111.623798,65.133801 L112.818914,65.133801 L112.818914,48.4619382 Z M110.428683,214.164718 C110.428683,222.291504 103.795791,228.86464 95.6690049,228.86464 L16.7316186,228.86464 C8.60483242,228.86464 1.97194076,222.291504 1.97194076,214.164718 L1.97194076,15.8950377 C1.97194076,7.76825149 8.60483242,1.19511561 16.7316186,1.19511561 L95.6690049,1.19511561 C103.795791,1.19511561 110.428683,7.76825149 110.428683,15.8950377 L110.428683,214.164718 Z" id="Shape"></path>
                    </g>
                    <g id="Logo" transform="translate(23.902312, 77.749441)" fill="#00BED5">
                        <path d="M56.8875032,24.2536763 C56.7679917,24.7317225 56.2301897,25.0305014 55.7521434,24.8512341 L55.7521434,24.8512341 L52.4058197,23.8353858 L52.1667966,24.1939205 C51.509483,25.2097688 50.7924136,26.1658613 49.8960769,27.0024422 L49.597298,27.3012211 L51.2107041,30.4085217 C51.4497272,30.8268122 51.2704599,31.42437 50.8521694,31.6633931 L49.4180307,32.4402182 L47.2070668,33.6353339 C46.7887763,33.874357 46.1912185,33.6950896 45.9521954,33.2767992 L44.3387893,30.1694986 L43.9204988,30.2890101 C42.785139,30.587789 41.5900234,30.7073006 40.335152,30.6475448 L39.9168615,30.6475448 L38.9010133,33.9938685 C38.8412575,34.2328917 38.6619901,34.412159 38.4827228,34.5316706 C38.2436997,34.6511821 38.0046765,34.6511821 37.7656534,34.5914263 L33.8217719,33.3963107 C33.3437256,33.2767992 33.0449467,32.7389971 33.2242141,32.2609509 L34.2400624,28.9146272 L33.8815277,28.6756041 C32.8656794,28.0182905 31.9095869,27.3012211 31.1327618,26.4048844 L30.8339829,26.1061055 L27.786438,27.7792673 C27.5474149,27.8987789 27.3083918,27.8987789 27.0693687,27.8390231 C26.8303455,27.7792673 26.6510782,27.6 26.5315666,27.4207327 L25.336451,25.150013 L24.6193817,23.77563 C24.4998701,23.5366069 24.4998701,23.2975838 24.5596259,23.0585607 C24.6193817,22.8195375 24.798649,22.6402702 24.9779163,22.5207586 L26.173032,21.8634451 L28.0254612,20.8475968 L27.9059496,20.4293063 C27.6071707,19.2341907 27.4876591,18.0390751 27.5474149,16.8439595 L27.5474149,16.425669 L24.2010912,15.4098207 C23.7230449,15.2903092 23.424266,14.7525071 23.6035334,14.2744609 L24.798649,10.3305794 C24.9181606,9.85253313 25.4559626,9.55375422 25.9340088,9.73302156 L29.2803326,10.7488698 L29.5193557,10.3903352 C30.1766693,9.37448688 30.8937386,8.41839439 31.7900753,7.58181346 L32.0888542,7.28303455 L30.4754482,4.17573396 C30.236425,3.75744349 30.4156924,3.15988568 30.8339829,2.92086256 L34.4790855,1.00867758 C34.7181086,0.889166017 34.9571317,0.889166017 35.1961548,0.948921798 C35.435178,1.00867758 35.6144453,1.18794492 35.7339569,1.36721226 L37.347363,4.47451286 L37.7656534,4.3550013 C38.9010133,4.0562224 40.1558846,3.93671083 41.3510003,3.99646661 L41.7692907,3.99646661 L42.785139,0.650142894 C42.9046506,0.172096648 43.4424526,-0.126682255 43.9204988,0.052585087 L47.8643804,1.2477007 C48.3424266,1.36721226 48.6412055,1.90501429 48.4619382,2.38306054 L47.4460899,5.72938426 L47.8046246,5.96840738 C48.8204729,6.62572097 49.7765653,7.34279034 50.5533905,8.23912705 L50.8521694,8.53790595 L53.8997142,6.92449987 C54.1387373,6.80498831 54.3777605,6.80498831 54.6167836,6.86474409 C54.8558067,6.92449987 55.035074,7.10376721 55.1545856,7.28303455 L57.0667706,10.9281372 C57.1862822,11.1671603 57.1862822,11.4061834 57.1265264,11.6452065 C57.0667706,11.8842297 56.8875032,12.063497 56.7082359,12.1830086 L53.6606911,13.8561704 L53.7802027,14.2744609 C54.0789816,15.4695765 54.1984931,16.6646921 54.1387373,17.8598077 L54.1387373,18.2780982 L57.4850611,19.2939465 C57.9631073,19.413458 58.2618862,19.9512601 58.0826189,20.4293063 L56.8875032,24.2536763 Z M45.1753702,14.9317745 C44.5778124,13.7964147 43.5619641,12.9598337 42.3668485,12.601299 C41.1717329,12.2427644 39.8571057,12.3622759 38.7217459,12.9598337 C37.5863861,13.5573915 36.8095609,14.5732398 36.3912705,15.7683554 C36.0327358,16.963471 36.1522473,18.2780982 36.7498051,19.413458 C36.9888283,19.8317485 37.2278514,20.1902832 37.5863861,20.5488179 C38.4827228,21.4451546 39.7375942,21.9829566 40.9327098,21.9829566 C41.7095349,21.9829566 42.4266043,21.8036893 43.1436737,21.4451546 C44.0997662,20.9073526 44.8168355,20.1305274 45.235126,19.1744349 C45.8326838,17.800052 45.8326838,16.3061574 45.1753702,14.9317745 Z M42.6656274,20.4293063 C41.2912445,21.1463757 39.6778384,20.9073526 38.6022343,20.0110158 L42.785139,17.7402962 L44.3387893,18.5768771 C44.0400104,19.3537023 43.4424526,20.0110158 42.6656274,20.4293063 Z M24.5596259,21.325643 C24.0815796,21.5646661 23.7230449,21.9829566 23.6035334,22.5207586 C23.4840218,23.0585607 23.4840218,23.5963627 23.7230449,24.0146532 L24.4401143,25.3890361 L21.0937906,27.1817095 C20.9145233,27.1817095 20.7352559,27.1817095 20.6157443,27.2414653 L17.3889322,28.3170694 C16.9706417,28.4365809 16.612107,28.7951156 16.3730839,29.2134061 C16.2535724,29.4524292 16.1938166,29.6316965 16.1938166,29.8707197 L9.85970382,33.2767992 L0,27.7792673 L18.8230709,17.5012731 L25.2169395,20.9671083 L24.5596259,21.325643 Z M10.0987269,35.4280073 L10.3377501,35.3084957 L11.174331,35.7267862 L20.1974539,40.6267602 L20.1974539,40.6267602 L21.1535464,41.1645622 L21.1535464,41.1645622 L26.3522993,43.9730839 L26.3522993,43.9730839 L27.3083918,44.5108859 L27.3083918,44.5108859 L29.3998441,45.6462458 L29.3998441,45.6462458 L29.3998441,45.6462458 L19.360873,51.0840218 L14.8791894,48.6340348 L14.0426085,48.1559886 L10.0389712,46.0047805 L0.418290465,40.8060275 L10.0987269,35.4280073 L10.0987269,35.4280073 Z M9.32190179,47.7974539 L10.6962847,48.5145233 L10.6962847,48.5145233 L10.6962847,48.5145233 L11.5328657,48.9328137 L11.5328657,48.9328137 L12.8474929,49.6498831 L12.8474929,49.6498831 L15.3572356,50.9645103 L15.3572356,50.9645103 L16.4925955,51.5620681 L19.3011172,53.1157184 L29.8778904,47.1998961 L29.8778904,47.1998961 L29.8778904,51.5023123 L29.8778904,53.5937646 L29.8778904,55.5059496 L29.8778904,56.6413094 L29.8778904,71.5802546 L29.8778904,71.5802546 L9.08287867,61.1827488 L9.08287867,47.5584308 L9.08287867,47.5584308 L9.32190179,47.7974539 L9.32190179,47.7974539 Z M27.786438,43.136503 C27.786438,43.0169914 27.8461938,42.8377241 27.8461938,42.7182125 C27.8461938,42.7182125 27.8461938,42.6584567 27.8461938,42.6584567 C27.8461938,42.5389452 27.8461938,42.4194336 27.8461938,42.2999221 C27.8461938,42.2401663 27.8461938,42.2401663 27.8461938,42.1804105 C27.8461938,42.0608989 27.8461938,41.9413874 27.786438,41.8218758 C27.786438,41.76212 27.786438,41.76212 27.786438,41.7023643 C27.7266823,41.5828527 27.7266823,41.4035853 27.6669265,41.2840738 C27.0096129,39.1328657 24.6791374,37.9975058 22.5876851,38.6548194 C22.4681736,38.7145752 22.2889062,38.774331 22.1693946,38.8340868 C22.1693946,38.8340868 22.1096389,38.8340868 22.1096389,38.8340868 C21.9901273,38.8938426 21.8706157,38.9535983 21.7511042,39.0133541 C21.7511042,39.0133541 21.7511042,39.0133541 21.7511042,39.0133541 C21.5120811,39.1328657 21.2730579,39.312133 21.0937906,39.4914004 L11.8316446,34.4719148 L11.8316446,34.4719148 C12.0109119,34.1731359 12.4292024,33.9938685 12.7279813,34.1731359 L15.3572356,35.5475188 L15.6560145,35.2487399 C16.3133281,34.5316706 17.0901533,33.874357 17.9267342,33.3365549 L18.2852689,33.0975318 L17.3889322,30.2890101 C17.3291764,30.1097428 17.3291764,29.9304754 17.448688,29.7512081 C17.5084438,29.5719408 17.6877111,29.4524292 17.8072227,29.3926734 L21.0340348,28.3170694 C21.3925695,28.1975578 21.7511042,28.3768251 21.8706157,28.7353598 L22.7669525,31.5438815 L23.1852429,31.5438815 C24.1413354,31.4841257 25.1571837,31.5438815 26.1132762,31.7829047 L26.5315666,31.9024162 L27.9059496,29.2731619 C27.9657054,29.0938945 28.1449727,28.974383 28.2644843,28.9146272 C28.4437516,28.8548714 28.623019,28.8548714 28.7425305,28.974383 L31.7900753,30.5280333 C32.0888542,30.7073006 32.2681216,31.1255911 32.0888542,31.42437 L30.7144713,34.0536243 L31.0132502,34.3524032 C31.7303196,35.0097168 32.3876332,35.786542 32.9254352,36.6231229 L33.1644583,36.9816576 L35.97298,36.0853209 C36.1522473,36.0255651 36.3315147,36.0255651 36.4510262,36.1450766 C36.6302936,36.2048324 36.7498051,36.3840998 36.8095609,36.5036113 L37.885165,39.7304235 C37.9449208,39.9096908 37.9449208,40.0889582 37.8254092,40.2682255 C37.7656534,40.4474929 37.5863861,40.5670044 37.4668745,40.6267602 L34.6583528,41.5230969 L34.6583528,41.9413874 C34.6583528,42.2401663 34.6583528,42.5389452 34.6583528,42.8377241 L31.7303196,44.4511302 L30.8937386,44.9291764 L30.0571577,44.4511302 L27.786438,43.136503 C27.786438,43.136503 27.786438,43.136503 27.786438,43.136503 Z M37.1083398,50.1876851 L42.3070928,53.1157184 L52.4655755,47.6779423 L52.4655755,61.2425045 L31.6705638,71.6400104 L31.6705638,51.5620681 L31.6705638,50.0681736 L31.6705638,47.1998961 L36.1522473,49.7096389 L37.1083398,50.1876851 Z M42.3070928,51.0840218 L36.9290725,48.0962328 L32.3876332,45.58649 L34.4193297,44.4511302 L34.4193297,44.4511302 L35.6144453,43.7938166 L51.2107041,35.2487399 L61.309431,40.7462718 L61.309431,40.7462718 L61.309431,40.7462718 L42.3070928,51.0840218 Z M50.971681,27.4804884 C51.6887503,26.7634191 52.3460639,25.9865939 52.8838659,25.0902572 L55.4533645,25.8670824 C56.0509223,26.0463497 56.6484801,25.9268381 57.1862822,25.5683035 L61.5484541,27.9585347 L51.6887503,33.4560665 L50.6131463,32.9182645 L51.3899714,32.499974 C52.3460639,31.962172 52.7045986,30.7670564 52.2265524,29.8109639 L50.971681,27.4804884 Z"></path>
                    </g>
                </g>
            </g>
        </g>
    </g>
</svg>