<svg width="25" height="24" xmlns="http://www.w3.org/2000/svg" xmlns:xlink="http://www.w3.org/1999/xlink">
  <g transform="translate(.5)" fill="none" fill-rule="evenodd">
    <path d="M21.951 0H2.05C.917 0 0 .84 0 1.878v18.244C0 21.159.917 22 2.049 22H21.95C23.083 22 24 21.16 24 20.122V1.878C24 .841 23.083 0 21.951 0zM2.071 1h19.858c.592 0 1.071.436 1.071.973v18.054c0 .537-.48.973-1.07.973H2.07C1.48 21 1 20.564 1 20.027V1.973C1 1.436 1.48 1 2.07 1zM8 23h10v1H8z" />
    <path d="M6.662 14.211c-.55 0-.995-.498-.995-1.112V8.753c0-.615.445-1.113.995-1.113s.996.498.996 1.113v4.346c0 .614-.446 1.112-.996 1.112m4.136-8.592c.27 0 .49-.242.49-.54 0-.297-.22-.539-.49-.539s-.49.242-.49.54c0 .297.22.539.49.539m3.799 0c.27 0 .49-.242.49-.54 0-.297-.22-.539-.49-.539s-.49.242-.49.54c0 .297.22.539.49.539m-4.03-2.06-.819-1.306c-.048-.078-.036-.18.027-.228.064-.048.155-.024.203.053l.85 1.358a4.62 4.62 0 0 1 1.839-.378c.655 0 1.278.135 1.838.378l.85-1.358c.048-.077.14-.101.203-.053.063.048.075.15.027.228l-.818 1.306c1.3.666 2.213 1.931 2.33 3.408h-8.86c.116-1.477 1.029-2.742 2.33-3.408m4.885 12.91v2.418c0 .615-.445 1.113-.995 1.113s-.996-.498-.996-1.113V16.47h-1.55v2.418c0 .615-.445 1.113-.995 1.113s-.996-.498-.996-1.113V16.47h-.887c-.428 0-.776-.382-.776-.854v-7.94h8.859v7.94c0 .472-.348.854-.777.854h-.887zm3.22-2.258c-.55 0-.996-.498-.996-1.112V8.753c0-.615.445-1.113.995-1.113s.996.498.996 1.113v4.346c0 .614-.446 1.112-.996 1.112" />
  </g>
</svg>
