<svg width="15" height="13" viewBox="0 0 15 13" fill="none" xmlns="http://www.w3.org/2000/svg">
<path fill-rule="evenodd" clip-rule="evenodd" d="M6.97585 0L12.9515 3.21781V9.78219L6.97585 13L1.57608 10.0923C1.04359 9.80555 0.844375 9.14144 1.13111 8.60895C1.41785 8.07646 2.08197 7.87724 2.61445 8.16398L6.97585 10.5125L10.7614 8.47408V4.52592L6.97585 2.48746L4.38829 3.88083L7.61206 5.64944C8.14229 5.94033 8.33631 6.60598 8.04542 7.13621C7.75453 7.66644 7.08888 7.86046 6.55865 7.56957L1.56856 4.83193C1.21672 4.63891 0.998652 4.26889 1.00022 3.86758C1.00179 3.46628 1.22275 3.09798 1.57608 2.90771L6.97585 0Z" fill="#C9D4F0"/>
</svg>
