<svg width="25" height="24" xmlns="http://www.w3.org/2000/svg">
  <path d="M22.451 0C23.583 0 24.5.84 24.5 1.878v18.244c0 1.037-.917 1.878-2.049 1.878H2.55C1.417 22 .5 21.16.5 20.122V1.878C.5.841 1.417 0 2.549 0zM4.591 13.292c-.2-.115-.347.089-.181.238 2.105 1.901 4.888 3.043 7.978 3.043 2.205 0 4.765-.693 6.531-1.996.292-.216.042-.54-.257-.413a15.883 15.883 0 0 1-6.089 1.246c-2.901 0-5.711-.796-7.983-2.118zm15.817-.13c-.193-.237-1.85-.442-2.86.268-.156.11-.129.26.044.24.569-.069 1.836-.221 2.062.068.226.29-.251 1.481-.465 2.014-.064.16.074.225.22.104.948-.793 1.193-2.454.999-2.693zm-7.924-5.704c-.599 0-1.152.216-1.498.635-.32.382-.506.922-.506 1.65 0 .717.163 1.254.475 1.631.32.382.808.649 1.655.649.321 0 .944-.068 1.335-.263.144-.054.146-.119.146-.255v-.235l-.004-.05c-.014-.09-.07-.122-.19-.084-.449.151-.9.212-1.174.212-.469 0-.88-.137-1.106-.405-.224-.29-.298-.617-.317-1.012h2.742l.039-.015c.091-.075.105-.422.11-.579.048-1.265-.62-1.88-1.707-1.88zm4.326-1.075h-.337l-.06.004c-.092.014-.138.066-.148.175l-.107 1.042-.629.078-.058.01c-.087.025-.12.088-.12.197v.196l.008.064c.021.073.082.104.159.104h.62v2.535l.007.159c.07.859.71 1.005 1.182 1.005.268 0 .485-.027.7-.072.23-.067.257-.11.26-.2v-.346l-.004-.053c-.016-.078-.072-.1-.166-.078-.202.033-.335.056-.535.064-.553-.038-.605-.216-.605-.755V8.253h1.113l.054-.004c.08-.014.113-.064.113-.164V7.75l-.006-.063c-.018-.074-.07-.104-.16-.104h-1.114V6.55l-.005-.054c-.016-.067-.066-.113-.162-.113zm-11.8-.82c-1.052-.195-1.966.014-1.966 1.35v.697l-.616.072-.058.008c-.087.02-.12.065-.12.175v.22l.006.064c.017.073.069.104.161.104h.627v3.47l.004.053c.014.08.063.113.163.113h.513l.054-.004c.08-.013.114-.063.114-.163V8.253h1.137l.054-.004c.08-.014.113-.064.113-.164v-.33l-.006-.063c-.018-.074-.07-.104-.16-.104H3.891V6.75l.008-.116c.075-.542.69-.464 1.09-.414.191.037.263.006.263-.143V5.8l-.004-.054c-.015-.098-.078-.14-.24-.184zm1.586 2.03h-.503l-.054.004c-.08.014-.114.064-.114.163v3.962l.004.054c.014.08.064.113.164.113h.503l.054-.004c.08-.013.114-.063.114-.163V7.76l-.006-.054c-.016-.067-.066-.113-.162-.113zm12.822 0h-.575c-.127 0-.157.079-.109.198l1.558 3.931c.048.12.115.167.235.167h.537c.115 0 .165-.071.208-.167l1.56-3.935c.052-.119.019-.194-.124-.194h-.515c-.12 0-.172.048-.225.167l-1.171 3.353-1.179-3.353c-.038-.095-.084-.167-.2-.167zm-9.354-.044c-.53 0-.886.134-1.39.663l-.063-.484-.02-.06c-.035-.065-.095-.075-.174-.075h-.376l-.054.004c-.08.014-.113.064-.113.163v3.962l.004.054c.014.08.064.113.163.113h.502l.054-.004c.08-.014.113-.063.113-.163V8.721l.097-.07c.29-.201.576-.334 1.155-.334.157.003.379.062.379-.106V7.72l-.004-.044c-.018-.082-.092-.127-.273-.127zm2.385.56c.995 0 .986.869.962 1.244h-2.102l.01-.122c.07-.602.392-1.123 1.13-1.123zM6.343 5.803c-.296 0-.522.198-.522.515 0 .32.207.516.53.516.322 0 .53-.199.53-.516 0-.35-.22-.515-.538-.515zM16.5 23v1h-8v-1z" fill="#D8D8D8" />
</svg>
