<svg width="25" height="24" xmlns="http://www.w3.org/2000/svg">
  <path d="M5.487 9.046c0-.57-.466-1.028-1.035-1.028h-.514v2.046h.514a1.03 1.03 0 0 0 1.035-1.018m2.335 4.079H5.938l-1.496-2.042h-.504v2.038h-1.66V7h2.379c1.371 0 2.49.917 2.49 2.046 0 .688-.428 1.303-1.082 1.679l1.757 2.4" />
  <path d="M9.748 9.44c-.442 0-.819.582-.819 1.303 0 .72.377 1.304.82 1.304.452 0 .828-.583.828-1.304 0-.72-.376-1.303-.829-1.303m2.579 1.303c0 1.377-1.157 2.48-2.579 2.48-1.422 0-2.57-1.103-2.57-2.48 0-1.376 1.148-2.48 2.57-2.48s2.579 1.104 2.579 2.48m3.845-2.424-1.926 1.886V8.312h-1.672v4.81h1.672V11.17l2.01 1.95h2.105l-2.555-2.502 2.116-2.072V11.4c0 .948.582 1.822 2.047 1.822.696 0 1.334-.386 1.645-.736l.751.635h.357V8.32H21.05v3.109c-.188.322-.45.524-.855.524-.412 0-.6-.239-.6-1.002V8.319h-3.423zM16.5 24v-1h-8v1z" />
  <path d="M22.451 0H2.55C1.417 0 .5.84.5 1.878v18.244C.5 21.159 1.417 22 2.549 22H22.45c1.132 0 2.049-.84 2.049-1.878V1.878C24.5.841 23.583 0 22.451 0zM2.571 1h19.858c.592 0 1.071.436 1.071.973v18.054c0 .537-.48.973-1.07.973H2.57c-.59 0-1.07-.436-1.07-.973V1.973C1.5 1.436 1.98 1 2.57 1z" />
</svg>
