<svg width="25" height="24" xmlns="http://www.w3.org/2000/svg">
  <path fill-rule="nonzero" d="M16.5 24v-1h-8v1zM22.451 0H2.55C1.417 0 .5.84.5 1.878v18.244C.5 21.159 1.417 22 2.549 22H22.45c1.132 0 2.049-.84 2.049-1.878V1.878C24.5.841 23.583 0 22.451 0zM2.571 1h19.858c.592 0 1.071.436 1.071.973v18.054c0 .537-.48.973-1.07.973H2.57c-.59 0-1.07-.436-1.07-.973V1.973C1.5 1.436 1.98 1 2.57 1z" />
  <path d="M12.996 12.702c.096.249.065.564.022.76-.08.344-.3.69-.944.69-.604 0-.973-.374-.973-.93l-.002-.995H8.504l-.004.792c0 2.137 1.48 2.881 3.155 2.971-3.965 2.331-8.44 4.162-9.01 2.377-.706-2.207 2.712-5.8 6.378-8.838 1.018 1.436 3.551 2.046 3.973 3.173zm1.6-7.148c3.445-1.987 6.807-3.07 7.803-2.12 1.502 1.463-2.018 5.913-5.866 9.191-.317.27-.677.557-1.073.854l-.021.175c.119-.89.035-1.469-.008-1.686-.41-2.151-4.082-2.794-4.355-3.998l-.012-.063.143-.107c.414-.314.839-.62 1.27-.914.24.156.37.432.37.788v.635h2.42v-.722c0-.944-.338-1.552-.832-1.94z" />
  <path d="m13.012 10.081-1.148-.66-.223-.136c-.601-.389-.948-.741-1.053-1.204a1.879 1.879 0 0 1-.012-.75c.137-.649.596-1.087 1.375-1.087.791 0 1.33.52 1.391 1.284l.006.146-.001.134h1.419v-.221c0-1.462-.92-2.042-2.565-2.084L12 5.5c-1.703 0-2.698.598-2.888 1.855-.068.44-.065.785.019 1.212.135.675.65 1.197 1.728 1.862l1.18.699c.719.442 1.147.804 1.366 1.26l.058.138.051.161c.055.225.058.469.023.708l-.032.18c-.153.655-.626 1.077-1.431 1.077-.818 0-1.401-.52-1.467-1.283l-.006-.146-.001-.497H9.001L9 13.019c0 1.655 1.01 2.425 2.815 2.478l.204.003c1.73 0 2.753-.626 2.924-1.912.089-.66.068-1.165-.003-1.527-.137-.714-.73-1.281-1.928-1.98z" fill-rule="nonzero" />
</svg>
